<svg width="199" height="102" viewBox="0 0 199 102" fill="none" xmlns="http://www.w3.org/2000/svg">
<g clip-path="url(#clip0_18402_3826)">
<path d="M31.1642 70.8354C33.1766 67.9603 35.7186 65.5963 38.7054 65.1065C41.5651 64.6167 44.7849 65.9797 47.3057 67.0658C52.5168 69.3872 55.44 70.7928 59.719 74.3495C63.0871 77.1607 66.7518 79.8654 69.3361 83.486C71.5815 86.5741 72.4076 90.4927 75.2885 93.091C78.8897 96.3282 79.0168 97.031 74.992 99.6931C62.3669 108.127 53.5759 110.64 38.3877 107.999C31.4184 106.764 26.5887 105.443 25.4024 98.1384C24.4704 92.3669 25.1059 85.1684 26.8641 79.6312C27.7538 77.0116 29.173 73.668 31.1642 70.8354Z" fill="#FFC40C"/>
<path d="M39.701 80.7386C37.9004 83.9758 36.5871 87.6815 36.5871 90.2159C36.5447 95.8383 45.6322 97.2866 49.7841 97.1162C55.4824 96.8819 61.5195 96.3282 67.1754 95.5828C65.1418 97.031 62.9176 98.2023 60.5663 99.1181C55.5035 101.12 50.2078 102.653 44.912 103.378C39.1714 104.166 31.9692 105.124 28.9824 98.5431C26.8641 93.8151 27.3301 89.0658 27.669 84.0823C28.0291 79.1626 32.0115 73.9661 35.8669 71.1123C36.8201 70.3882 38.0275 70.0048 39.3832 69.7919C46.3736 68.7696 50.6103 72.7096 55.1858 77.3524C56.7322 78.9497 58.0031 80.8664 59.719 82.272C61.5619 83.8054 64.4428 85.5518 66.7094 87.4898C63.0023 86.4889 59.1258 83.6138 55.9696 81.5479C53.3641 79.8442 50.7162 78.0339 47.7505 77.0329C43.5987 75.606 41.7981 77.0755 39.701 80.7386Z" fill="#FFFA50"/>
<path d="M66.4128 87.2982C68.7853 88.6399 72.0263 91.0678 71.0096 93.4957C70.0563 95.7319 65.5231 96.9032 63.4684 97.2866C60.2909 97.8829 57.0923 98.0746 53.9148 98.4579C51.3305 98.7774 49.2334 99.5228 46.6067 99.0329C41.6498 98.1172 37.5191 97.2014 36.8625 91.7493C36.0151 84.8277 41.9464 72.0281 50.8433 75.606C54.0207 76.8839 55.1223 79.4821 57.3465 81.6544C59.5072 83.7842 62.261 85.2537 64.9724 86.5102C65.3537 86.7232 65.8621 86.9787 66.4128 87.2982Z" fill="#FFE62E"/>
<path d="M38.7054 65.1065C41.5651 64.6167 44.7849 65.9797 47.3057 67.0658C52.5168 69.3872 55.44 70.7928 59.719 74.3495C63.0871 77.1607 66.7518 79.8654 69.3361 83.486C70.4164 84.9768 71.179 86.6805 72.0052 88.3417C71.3909 87.4898 70.7766 86.6593 70.0563 85.9777C67.472 83.4008 64.8453 80.6534 61.7738 78.6728C61.7314 78.6515 61.689 78.6302 61.6678 78.6089C56.478 73.9448 49.8689 70.0048 44.7849 70.516C36.227 71.3892 29.8297 80.0145 29.2154 88.3843C28.3045 100.396 37.5827 105.017 48.4284 104.315C57.8337 103.718 70.0351 102.27 77.5551 95.9448C77.661 95.9022 77.7246 95.8809 77.8093 95.8383C78.4236 97.0949 77.5551 97.9894 74.992 99.6931C62.3669 108.127 53.5759 110.64 38.3877 107.999C31.4184 106.764 26.5887 105.443 25.4024 98.1384C24.4704 92.3669 25.1059 85.1684 26.8641 79.6312C27.7114 77.0116 29.1518 73.668 31.1219 70.8354C33.1978 67.9603 35.7186 65.5963 38.7054 65.1065Z" fill="#EF9818"/>
<path d="M33.219 81.7822C34.384 78.9923 36.2693 76.5857 38.7266 74.456C41.1838 72.2836 43.4928 72.5392 40.9508 75.6273C36.8413 80.6747 34.7653 83.486 34.9772 90.1307C34.9984 91.8558 36.4812 96.4347 35.3373 97.3291C31.9056 95.9235 31.6514 90.5992 31.8844 87.4898C32.0327 85.424 32.4776 83.5286 33.219 81.7822Z" fill="white"/>
<path d="M67.6203 91.4085C67.5779 91.0252 67.4932 90.6418 67.3661 90.365C66.9424 89.4918 65.9045 88.7464 65.1207 88.2139C64.4005 87.7241 63.4684 87.4046 63.0659 86.5954C63.9556 86.1268 65.9892 87.5111 66.7094 87.9797C67.7262 88.6399 68.7642 89.3853 69.5268 90.365C70.0987 91.0891 70.48 91.9409 70.2893 92.878C70.0987 93.7512 69.5479 94.5392 68.5947 94.0068C67.7897 93.5808 67.7686 92.4095 67.6203 91.4085Z" fill="white"/>
</g>
<g clip-path="url(#clip1_18402_3826)">
<path d="M98.42 45.82C101.34 43.42 105.27 42.71 109.01 42.19C110.29 42.01 111.61 41.85 112.86 42.19C114.85 42.72 116.54 44.48 118.6 44.32C119.17 44.28 119.77 44.08 120.3 44.29C120.99 44.56 121.28 45.43 121.14 46.16C121 46.89 120.54 47.51 120.09 48.1C114.74 55.08 108.82 62.46 100.37 64.89C98.18 65.52 95.59 65.77 93.47 64.76C90.75 63.47 90.73 61.38 91.31 58.73C92.35 53.87 94.5 49.05 98.42 45.82Z" fill="#D5D458"/>
<path opacity="0.62" d="M93.8199 64.91C96.5899 64.53 99.1199 63.22 101.49 61.81C103.44 60.65 105.53 59.45 107.31 58.05C108.51 57.11 109.21 55.69 109.88 54.32C110.34 53.38 110.8 52.44 111.26 51.49C111.52 50.96 111.78 50.42 111.85 49.83C110.65 50.27 109.45 50.71 108.26 51.15C109.22 50.8 110.36 49.35 111.14 48.67C111.54 48.33 112.98 47.48 112.48 46.74C112.28 46.44 111.89 46.34 111.53 46.29C110.4 46.12 109.22 46.24 108.14 46.63C108.89 45.76 110.07 45.4 111.2 45.2C111.5 45.15 111.83 45.09 112.04 44.86C111.71 44.56 111.22 44.51 110.77 44.49C108.34 44.38 105.89 44.64 103.54 45.25C104.34 44.85 105.14 44.46 105.99 44.19C106.54 44.02 107.11 43.9 107.67 43.78C108.88 43.53 110.09 43.28 111.31 43.03C110.36 42.47 108.76 42.49 107.71 42.68C106.9 42.83 106 42.66 105.21 42.83C106.46 42.56 107.74 42.36 109 42.19C110.28 42.01 111.6 41.85 112.85 42.19C114.84 42.72 116.53 44.48 118.59 44.32C119.16 44.28 119.76 44.08 120.29 44.29C120.98 44.56 121.27 45.43 121.13 46.16C121 46.89 120.54 47.51 120.09 48.1C114.74 55.08 108.82 62.46 100.37 64.89C98.2999 65.48 95.8699 65.73 93.8199 64.91Z" fill="#BFB939"/>
<path opacity="0.62" d="M117.05 48.36C116.13 46.82 116.65 45.53 116.99 44.08C117.51 44.26 118.04 44.36 118.6 44.32C119.17 44.28 119.77 44.08 120.3 44.29C120.99 44.56 121.28 45.43 121.14 46.16C121 46.89 120.54 47.51 120.09 48.1C119.59 48.76 119.07 49.42 118.56 50.08C118.01 49.55 117.45 49.04 117.05 48.36Z" fill="#FFEC9C"/>
<path opacity="0.68" d="M116.98 48.61C117 48.5 117.01 48.39 117.01 48.27C118.06 48.72 119.19 47.89 119.44 46.83C119.61 46.12 119.85 45.39 119.47 44.76C119.49 44.62 119.17 44.39 119.14 44.25C119.54 44.19 119.94 44.15 120.31 44.29C121 44.56 121.29 45.43 121.15 46.16C121 46.89 120.54 47.51 120.09 48.1C119.52 48.84 118.95 49.59 118.36 50.33C117.55 49.91 116.84 49.32 116.98 48.61Z" fill="#E8B769"/>
<path opacity="0.44" d="M99.76 47.76C101.47 46.58 103.37 45.65 105.39 45.18C107.95 44.58 110.72 44.74 113.09 45.88C114.39 46.5 115.63 47.56 115.83 48.98C116.18 51.54 114.61 53.24 113.17 55.05C111.43 57.25 109.17 59.01 106.71 60.36C103.58 62.07 100.13 63.13 96.65 63.93C95.34 64.23 93.7199 64.4 92.8799 63.34C92.2999 62.61 92.3499 61.57 92.4899 60.65C93.2299 55.68 95.58 50.65 99.76 47.76Z" fill="#E5DF6E"/>
<path opacity="0.65" d="M118.37 50.07C118.4 50.03 118.42 50 118.45 49.97C119.06 49.11 119.96 47.53 120.17 46.49C120.4 45.36 120.23 44.53 119.34 44.23C119.67 44.19 120 44.17 120.3 44.29C120.99 44.56 121.28 45.43 121.14 46.16C121 46.89 120.54 47.51 120.09 48.1C119.55 48.8 119 49.51 118.45 50.21C118.42 50.16 118.4 50.11 118.37 50.07Z" fill="#A57329"/>
<path d="M96.87 61.87C96.71 61.94 96.55 62.01 96.39 62.09C95.62 62.45 94.44 63.05 93.58 62.73C92.57 62.35 92.96 60.09 93.14 59.18C93.67 56.41 95.45 54.3 97.24 52.53C98.17 51.6 99.33 50.9 100.61 50.82C101.14 50.79 101.68 50.86 102.21 50.8C103.32 50.68 104.3 49.9 105.42 49.87C106.1 49.85 107.06 49.95 107.72 50.14C108.27 50.3 108.81 50.73 108.98 51.34C109.16 51.97 108.92 52.62 108.66 53.17C106.92 56.85 103.83 59.59 100.24 60.64C99.04 60.99 97.98 61.37 96.87 61.87Z" fill="#E5DF6E"/>
<path opacity="0.77" d="M93.46 64.76C92.7 64.4 92.15 63.97 91.77 63.49C92.24 64.08 94.28 63.7 94.9 63.64C96.34 63.49 97.75 63.16 99.12 62.71C104.07 61.09 110.01 58.38 112.18 53.3C111.75 53.53 111.32 53.76 110.89 53.99C111.78 52.47 112.82 51.03 114.01 49.73C114.18 49.55 114.33 49.22 114.12 49.09C114.06 49.05 113.98 49.05 113.91 49.02C113.66 48.91 113.71 48.55 113.67 48.28C113.44 46.78 106.97 48.31 106.09 48.96C107.42 47.97 108.97 47.29 110.6 46.98C111.5 46.81 112.41 46.75 113.3 46.55C113.43 46.52 113.57 46.48 113.66 46.39C113.83 46.2 113.73 45.87 113.53 45.72C113.37 45.61 111.92 45.19 111.8 45.27C112.32 44.94 112.88 44.68 113.46 44.5C113.04 44.45 112.65 44.28 112.33 44C113.07 43.96 113.81 43.82 114.52 43.61C113.57 43.03 112.5 42.65 111.39 42.49C110.91 42.42 110.41 42.51 109.95 42.45C109.65 42.41 109.32 42.17 109.01 42.21C110.29 42.03 111.61 41.87 112.86 42.21C114.44 42.63 115.83 43.82 117.37 44.22C116.88 44.91 116.62 45.79 116.6 46.62C116.57 48.01 117.54 49.57 119.05 49.45C113.97 56.01 108.27 62.63 100.36 64.9C98.18 65.52 95.59 65.76 93.46 64.76Z" fill="#B9BC37"/>
<path opacity="0.68" d="M93.46 64.76C93.15 64.61 92.89 64.45 92.65 64.29C98.46 66.43 104.69 63.01 109.15 59.27C110.48 58.16 111.77 56.98 112.95 55.71C114.51 54.03 115.55 52.14 116.77 50.23C115.29 50.15 113.96 51.09 112.78 51.98C113.43 51.01 114.56 50.49 115.38 49.67C115.58 49.47 115.78 49.17 115.66 48.91C115.47 48.5 114.72 48.61 114.6 48.18C114.86 47.96 115.12 47.74 115.38 47.52C115.25 47.37 115.07 47.27 114.88 47.25C115.07 46.7 115.93 46.52 115.95 45.94C115.96 45.56 115.59 45.29 115.23 45.17C114.87 45.05 114.47 44.98 114.22 44.71C114.85 44.6 115.49 44.59 116.12 44.7C115.8 44.65 115.27 43.27 114.84 43.04C115.69 43.49 116.52 43.98 117.39 44.2C116.9 44.89 116.64 45.77 116.62 46.6C116.59 47.99 117.56 49.55 119.07 49.43C113.99 55.99 108.29 62.61 100.38 64.88C98.18 65.52 95.59 65.76 93.46 64.76Z" fill="#A29720"/>
<path opacity="0.75" d="M93.46 64.76C93.15 64.61 92.89 64.45 92.65 64.29C98.46 66.43 104.69 63.01 109.15 59.27C111.63 57.19 113.77 55.38 115.41 52.55C115.95 51.63 116.48 50.71 117.02 49.79C117.06 49.72 117.11 49.64 117.12 49.55C117.15 49.34 116.94 49.15 116.73 49.11C116.52 49.07 116.3 49.14 116.1 49.21C116.32 49.06 116.55 48.9 116.68 48.67C116.81 48.44 116.81 48.11 116.6 47.94C116.44 47.81 116.22 47.81 116.02 47.81C115.33 47.82 114.64 47.82 113.95 47.83C114.75 47.5 115.55 47.17 116.35 46.84C116.11 46.61 116.15 46.22 116.15 45.89C116.15 45.55 116 45.13 115.67 45.12C115.97 45.01 116.26 44.9 116.56 44.79C116.42 44.46 116.27 44.16 116.24 43.81C116.34 43.85 117.31 44.29 117.36 44.21C116.87 44.9 116.61 45.78 116.59 46.61C116.56 48 117.53 49.56 119.04 49.44C113.96 56 108.26 62.62 100.35 64.89C98.18 65.52 95.59 65.76 93.46 64.76Z" fill="#8A720B"/>
<path opacity="0.42" d="M118.95 45.71C119.09 45.71 119.23 45.71 119.35 45.77C119.47 45.82 119.58 45.95 119.57 46.08C119.57 46.16 119.53 46.23 119.49 46.29C119.16 46.84 118.76 47.35 118.3 47.79C118.06 48.02 117.73 48.24 117.43 48.11C117.19 48.01 117.09 47.72 117.05 47.46C117 47.2 117 46.92 117 46.65C117 46.11 117 45.31 117.5 44.94C118.17 44.45 118.98 44.9 118.95 45.71Z" fill="#FFF69E"/>
<path d="M118.35 45.26C118.46 45.24 118.62 45.25 118.64 45.36C118.66 45.44 118.58 45.52 118.59 45.6C118.6 45.72 118.78 45.78 118.79 45.9C118.8 45.96 118.75 46.02 118.71 46.07C118.42 46.42 118.11 46.75 117.78 47.07C117.62 47.23 117.38 47.38 117.2 47.25C117.12 47.19 117.08 47.08 117.06 46.97C116.89 45.98 117.41 45.42 118.35 45.26Z" fill="#FBEF95"/>
<path opacity="0.34" d="M95.2799 52.73C96.2799 51.31 97.5499 50.05 99.1299 49.32C97.2799 51.05 95.6899 53.05 94.3799 55.21C94.2099 55.5 94.0399 55.78 93.8799 56.07C93.7399 56.33 93.5199 56.54 93.3899 56.79C92.9699 57.62 92.6399 58.49 92.3999 59.39C92.3499 59.58 92.2999 59.77 92.1899 59.92C92.2799 59.79 92.2199 59.24 92.2499 59.06C92.2999 58.73 92.3799 58.4 92.4799 58.08C92.6799 57.49 93.0499 57 93.2799 56.44C93.8099 55.15 94.4699 53.89 95.2799 52.73Z" fill="#BFB939"/>
<path opacity="0.34" d="M99.25 46.35C100.56 45.22 102.11 44.31 103.81 43.98C101.6 45.21 99.57 46.75 97.77 48.53C97.53 48.77 97.3 49 97.07 49.25C96.87 49.46 96.6 49.61 96.42 49.82C95.81 50.52 95.28 51.29 94.82 52.1C94.73 52.27 94.63 52.44 94.49 52.56C94.61 52.46 94.69 51.91 94.75 51.74C94.88 51.43 95.03 51.13 95.21 50.85C95.55 50.33 96.03 49.95 96.39 49.45C97.24 48.33 98.18 47.27 99.25 46.35Z" fill="#BFB939"/>
<path opacity="0.34" d="M94.1699 57.34C94.9699 56.32 95.9799 55.42 97.1899 54.92C95.7399 56.15 94.4599 57.58 93.3999 59.15C93.2699 59.35 93.1299 59.56 92.9999 59.77C92.8799 59.96 92.7099 60.11 92.6099 60.29C92.2699 60.89 91.9899 61.53 91.7799 62.18C91.7399 62.32 91.6899 62.45 91.5999 62.57C91.6699 62.48 91.6399 62.07 91.6699 61.94C91.7199 61.7 91.7899 61.46 91.8799 61.23C92.0499 60.8 92.3499 60.45 92.5399 60.04C92.9799 59.08 93.5199 58.17 94.1699 57.34Z" fill="#BFB939"/>
<path opacity="0.34" d="M107.91 56.35C107 57.4 105.88 58.31 104.56 58.77C106.18 57.53 107.62 56.06 108.84 54.44C109 54.23 109.16 54.01 109.31 53.79C109.44 53.59 109.64 53.44 109.76 53.26C110.16 52.63 110.49 51.96 110.76 51.27C110.81 51.13 110.87 50.98 110.97 50.86C110.88 50.96 110.89 51.4 110.86 51.54C110.8 51.8 110.71 52.05 110.6 52.3C110.4 52.76 110.06 53.11 109.83 53.55C109.28 54.54 108.65 55.49 107.91 56.35Z" fill="#BFB939"/>
</g>
<path d="M52.7203 38.8521C52.685 40.3986 52.6901 41.903 52.5839 43.4493C52.5035 44.649 53.0746 45.7181 52.9262 46.8994C52.7339 48.4244 51.9021 48.2836 50.3865 48.5443C48.5673 48.8608 46.7444 49.0834 44.9367 49.398C42.5033 49.8212 39.8788 49.6914 37.4998 49.0078C32.8165 47.6637 28.755 44.9306 25.3974 41.4149C19.1301 34.847 15.4082 25.0159 15.0582 15.9829C14.9767 13.9775 14.75 11.0869 13.5167 9.40047C12.6481 8.20905 10.5637 6.87493 13.2152 6.95305C14.7817 7.00274 15.9164 7.8376 17.2903 8.36756C18.6823 8.90043 20.1838 8.91357 21.6756 9.01096C23.0878 9.09189 24.4883 9.31642 25.886 9.48828C34.9817 10.5623 41.9822 18.0723 46.9872 25.113C49.9325 29.2454 52.8266 33.6047 52.7203 38.8521Z" fill="#78AF02"/>
<path opacity="0.42" d="M46.7388 49.1198C46.1391 49.2065 45.5346 49.2998 44.9435 49.4028C42.5102 49.826 39.8857 49.6963 37.5067 49.0126C32.8233 47.6685 28.7619 44.9354 25.4043 41.4197C19.1303 34.8471 15.4084 25.016 15.0584 15.983C14.9769 13.9775 14.7502 11.0869 13.5169 9.4005C12.6483 8.20909 10.5639 6.87496 13.2154 6.95309C14.4075 6.98752 15.3572 7.48678 16.3425 7.95069C18.0391 9.65544 18.8506 11.9011 20.4021 13.8362C21.0399 14.6287 21.722 15.3313 22.2936 16.1878C22.4348 16.4008 23.5596 18.9727 23.4285 18.9293C21.7369 18.3335 20.6202 17.1769 19.4752 15.8479C18.4906 14.705 17.1342 12.484 15.5798 12.149C14.0429 15.3351 18.8492 18.1466 20.4477 20.0445C18.8539 19.3972 17.8521 17.8263 16.3284 17.0671C16.8539 18.002 16.3812 19.4373 16.8488 20.5234C17.3317 21.6306 18.1643 22.279 19.2952 22.6954C21.0757 23.3651 22.755 23.9217 24.5307 24.2026C26.4155 24.5011 28.4576 23.8883 30.0815 25.1859C28.8191 26.5207 25.3457 25.3556 23.891 24.9806C23.0594 24.7689 16.7776 22.7133 16.8376 22.4319C15.7246 27.768 23.4299 30.0443 27.1549 30.0819C28.396 30.0906 29.6411 29.9806 30.8813 29.9481C31.522 29.9314 33.6928 30.3541 34.1647 30.0641C30.6182 32.2639 25.6394 31.5291 21.9569 30.1327C21.1015 29.8128 20.2474 29.3923 19.378 29.3462C17.6603 33.2645 23.3393 34.3093 25.8161 34.546C27.8486 34.7375 29.9262 35.3467 31.9757 35.2463C33.4458 35.176 34.8229 34.3596 36.2693 34.1811C34.6191 35.491 32.0325 35.9158 29.9725 35.9884C27.5007 36.0697 24.9431 34.8015 22.4926 35.1921C21.869 36.8942 25.5231 39.3755 26.7551 39.9759C29.1425 41.1422 32.4686 41.0151 35.0665 41.0548C36.5335 41.0736 37.9552 40.421 39.3247 39.9541C40.1413 39.6783 42.5873 39.5482 43.1429 39.0851C41.8696 40.1383 39.8899 40.6641 38.2937 41.0089C37.2733 41.2296 36.2444 41.434 35.2051 41.5397C34.2808 41.6266 32.9516 41.2605 32.1026 41.4825C29.7722 42.1014 31.1998 43.7854 32.7388 44.1701C36.1459 45.0037 39.3634 45.042 42.7615 44.419C41.0706 44.7262 39.7004 45.4766 37.8032 45.5343C35.9108 45.5854 34.1332 44.8974 32.1932 45.2691C32.2973 47.4125 39.6023 48.0428 41.0901 48.188C42.8173 48.353 44.4946 48.1071 46.1334 47.59C46.9911 47.3134 48.492 46.3526 49.5929 46.1187C49.9014 46.0563 50.1715 46.0473 50.3858 46.1302C50.6001 46.2131 47.7379 48.5897 47.3726 48.7737C47.1607 48.8852 46.944 49.0035 46.7388 49.1198Z" fill="#A3CE24"/>
<path opacity="0.42" d="M37.5067 49.0126C32.8233 47.6685 28.7619 44.9354 25.4043 41.4197C19.1303 34.847 15.4084 25.016 15.0584 15.9829C14.9769 13.9775 14.7502 11.0869 13.5169 9.40049C12.6483 8.20907 10.5639 6.87494 13.2153 6.95307C14.7158 6.9959 15.8162 7.76556 17.1125 8.29054C18.2299 9.16367 19.1517 10.1397 19.6262 11.5553C19.6613 11.6616 19.6984 11.7795 19.7288 11.8926C20.4058 14.3256 18.5973 13.7371 17.1049 14.3187C14.746 15.2314 17.4067 17.4862 18.7416 18.2823C19.8528 18.938 22.0847 19.0496 22.711 20.2395C20.9354 21.5405 18.6487 19.9091 16.8421 19.3321C16.1842 22.9465 22.0014 23.8978 24.6389 23.7834C27.8118 23.6579 25.5276 25.3848 23.8237 25.9361C22.7254 26.2936 21.7877 26.3708 20.6359 26.2944C19.8125 26.2407 18.6105 25.895 17.8956 26.1423C19.6614 27.7648 21.5481 28.8658 23.9942 29.5266C25.2622 29.8792 27.0223 30.2807 28.3829 30.3347C29.5884 30.3788 30.9726 29.8209 32.0589 30.4689C31.7959 31.9229 28.0814 32.3086 26.9139 32.3528C24.105 32.4658 22.0484 31.9122 19.4294 31.0968C19.4459 32.2038 20.9406 33.4695 21.8115 34.0643C23.0736 34.9196 24.6986 34.9302 26.167 35.1731C27.8852 35.4635 29.6944 35.7685 31.428 35.6136C32.4807 35.5175 34.9886 34.3264 35.8148 34.8283C35.2474 36.226 32.6624 37.1995 31.3446 37.6934C28.9982 38.5745 26.1421 38.4002 23.8269 37.4581C23.8515 38.3985 26.0299 39.6582 26.8103 40.0967C30.8384 42.3394 35.4889 41.3986 39.7238 40.0479C40.7617 39.7181 41.9682 38.9415 41.3714 40.6628C41.0416 41.6024 40.1621 42.1777 39.2438 42.5529C36.4832 43.7146 33.3653 42.8453 30.5149 43.1009C31.899 43.7295 33.5941 44.4901 35.1279 44.6278C37.6968 45.5695 40.8003 44.015 43.2478 44.8999C41.7146 46.1316 39.8897 46.4136 37.9633 46.2577C36.6957 46.1589 35.0528 45.2127 33.8052 45.5239C32.528 45.834 32.7475 46.5594 33.7667 47.2302C35.4829 48.371 38.0543 47.8542 39.9821 48.2342C40.854 48.4039 41.2214 48.1605 40.8635 49.2523C40.8278 49.3585 40.7692 49.4685 40.6971 49.5689C39.6161 49.4926 38.5412 49.3091 37.5067 49.0126Z" fill="#A3CE24"/>
<path opacity="0.42" d="M34.9452 44.5575C35.0083 44.5825 35.0695 44.5961 35.1327 44.6211C35.1739 44.6202 35.2236 44.6357 35.2648 44.6348C35.1567 44.5876 35.0524 44.5635 34.9452 44.5575Z" fill="#A3CE24"/>
<path d="M44.9435 49.4028C42.5102 49.826 39.8857 49.6963 37.5067 49.0126C37.0923 48.8977 36.6838 48.7464 36.2838 48.6114C36.7806 48.7246 37.2639 48.8282 37.6918 48.8819C39.9176 49.1716 43.2692 49.1642 45.1791 47.8176C45.6174 47.5036 45.9602 47.1108 46.2026 46.646C47.0262 45.0468 44.7904 44.5167 43.6827 44.4212C41.877 44.2809 40.0082 44.9066 38.2284 45.1398C36.0721 45.4172 32.4217 45.0073 30.1173 43.5558C33.7444 44.9022 42.5774 45.7066 43.7183 41.151C43.7714 40.9357 43.7098 40.6684 43.4725 40.5893C41.1395 39.8981 38.9912 40.8707 36.6435 41.1323C34.4011 41.3884 28.0442 40.7087 27.0704 40.2429C30.5216 40.6619 34.756 40.3148 37.5665 38.773C39.2493 37.8414 38.061 35.7817 36.6727 35.2718C34.7611 34.5586 32.6203 35.5772 30.6058 35.4594C28.3126 35.3343 26.0666 35.101 23.827 34.6188C23.2345 34.4977 22.6691 34.2541 22.0845 34.0372C20.9967 33.6315 19.914 33.0773 19.4196 31.972C20.9914 33.4553 23.2211 33.6971 25.244 33.9021C27.4517 34.118 29.6547 34.3406 31.658 33.1321C32.3513 32.7171 34.4648 31.4964 33.7464 30.3925C33.1214 29.4267 30.2468 29.7866 29.2708 29.8466C27.135 29.9966 25.2627 29.6666 23.1836 29.2997C21.3295 28.9725 19.9454 28.3439 18.5725 26.9933C20.9824 28.3684 23.7318 28.7197 26.4596 28.5078C27.7593 28.4066 30.658 27.6177 29.4723 25.6814C28.4926 24.0655 25.7805 24.5523 24.233 24.5467C21.9146 24.5555 19.4328 23.2099 17.4752 22.1088C18.7665 22.3158 19.9726 22.9383 21.2997 22.9682C21.9921 22.9785 23.4217 23.0212 23.9827 22.6634C25.2267 21.8629 23.7874 21.4381 23.0632 21.1616C21.0052 20.3839 19.4199 19.3574 17.7541 17.9486C16.3971 16.802 15.6668 15.4462 15.1489 13.7663C15.7937 15.6084 17.298 16.4652 18.8172 17.4848C19.9435 18.2325 21.3696 19.3678 22.8031 18.5716C23.1224 18.3952 23.1941 18.041 23.5122 17.9652C24.0795 17.8248 24.5513 18.3258 24.9662 18.6237C25.3544 18.9023 25.7687 19.0172 26.1694 19.2643C27.1762 19.8958 27.1072 21.1645 27.623 22.1128C28.1932 23.1407 29.1393 23.9416 29.9446 24.7834C30.9504 25.8401 31.9467 26.9102 32.941 27.9688C34.8944 30.0505 36.84 32.1571 38.8049 34.2369C41.424 37.0298 43.9847 39.8618 46.4435 42.7931C48.1824 44.8628 49.4227 46.0168 51.947 46.7946C52.1776 46.8689 52.5173 46.9607 52.9039 47.0861C52.6672 48.3764 51.8429 48.2816 50.4078 48.5291C48.5742 48.8656 46.7513 49.0882 44.9435 49.4028Z" fill="#6D9E02"/>
<path d="M45.9435 44.4926C44.2983 43.2812 42.8117 41.8489 41.2645 40.5151C37.8595 37.5738 34.1453 34.583 31.3489 31.0341C28.4713 27.3865 25.5993 23.8441 22.9942 19.9864C20.5589 16.3724 18.012 12.2218 14.8177 9.26952C14.1421 8.64259 13.1332 8.07042 12.3077 7.68062C12.2178 7.63636 12.1116 7.60068 11.9939 7.56688C11.8043 7.16711 12.0347 6.91676 13.2269 6.95119C14.7934 7.00088 15.9281 7.83574 17.302 8.36569C18.694 8.89856 20.1955 8.91171 21.6872 9.0091C23.0995 9.09002 24.5 9.31456 25.8977 9.48642C34.9934 10.5605 41.9939 18.0704 46.9989 25.1112C49.9394 29.2503 52.8335 33.6095 52.7205 38.8521C52.6852 40.3986 52.6903 41.903 52.5841 43.4493C52.5037 44.649 53.0748 45.7181 52.9264 46.8994C52.8473 47.5322 52.655 47.8708 52.3462 48.075C50.1027 47.1743 48.0322 46.0327 45.9435 44.4926Z" fill="#61A304"/>
<path opacity="0.6" d="M14.8062 9.27141C14.1306 8.64449 13.1217 8.07231 12.2962 7.68251C12.2063 7.63825 12.1001 7.60256 11.9824 7.56877C11.7928 7.16899 12.0232 6.91865 13.2154 6.95308C13.3274 6.95239 13.4365 6.96989 13.539 6.98258C13.4976 7.0543 13.4696 7.13563 13.4733 7.22949C13.4913 7.69876 14.33 8.16902 14.6713 8.41403C15.2353 8.82906 15.6066 9.32886 16.0363 9.8604C17.565 11.7285 18.8692 13.7397 20.4046 15.6126C21.2029 16.5913 23.0353 20.3811 24.3747 20.5212C25.5868 20.6409 25.0069 19.2309 24.7372 18.3071C24.4266 17.2425 23.8409 16.6598 23.3663 15.7106C22.8621 14.6896 22.5718 13.5685 21.9257 12.618C21.1489 11.4823 20.2843 10.6385 19.3884 9.64045C20.9862 10.2399 22.1891 12.6042 23.062 14.0015C24.2946 15.9714 25.2111 17.9577 25.7832 20.1836C26.2577 21.9946 26.5893 23.5104 27.8892 24.9202C28.1051 25.1563 28.4426 25.7738 28.7993 25.5735C29.2845 25.2932 28.995 24.2132 29.0564 23.7604C29.207 22.8444 29.4302 22.0108 29.4679 21.0542C29.5351 19.3786 29.3362 17.664 29.2913 15.989C29.2479 14.5381 28.8391 12.8757 28.1105 11.6023C29.8022 14.571 30.6553 17.4651 30.3665 20.9185C30.271 22.0262 30.3726 23.1842 30.2225 24.2832C30.0647 25.4071 29.9289 26.5568 30.4406 27.6239C30.9228 28.619 31.8246 29.5098 32.5609 30.3629C33.5694 31.5431 34.0551 31.0502 34.4097 29.7228C35.0231 27.4557 34.772 25.1357 35.2045 22.8806C35.5982 20.8208 34.9028 18.4558 34.6884 16.3954C34.5248 14.7163 34.038 13.2615 33.3641 11.926C33.4158 11.9529 33.4674 11.9798 33.5191 12.0068C33.5774 12.0385 33.6357 12.0703 33.696 12.1135C35.9133 14.7599 36.0778 18.4576 36.5131 21.8629C36.5141 22.2287 36.5104 22.6012 36.5066 22.9737C36.44 25.2278 36.3378 27.5172 36.4493 29.7774C36.525 31.3529 36.319 33.01 37.777 34.0161C38.3219 34.387 39.156 34.7931 39.7126 34.3003C39.9698 34.0692 40.1587 33.566 40.2724 33.2521C41.3366 30.3148 41.0725 26.9817 41.2359 23.9148C41.3391 21.9912 41.361 20.0397 41.2316 18.1012C41.2516 18.1156 41.2669 18.1367 41.2822 18.1578C41.2889 18.1626 41.2956 18.1674 41.2974 18.1789C42.4832 20.1151 42.4249 22.4563 42.5021 24.6514C42.5405 25.7843 42.6717 27.0142 42.5569 28.1487C42.4568 29.1923 42.4026 30.2283 42.314 31.2699C42.1829 32.8085 41.9871 34.2397 42.0159 35.7815C42.0466 37.8012 42.6135 41.0373 45.0899 41.4157C46.7067 41.6638 47.5563 38.7853 47.9697 37.6726C48.9171 35.1381 48.7781 31.9556 48.6859 29.2731C48.6634 28.6688 48.6294 28.0664 48.5839 27.4659C48.7575 27.7325 48.9379 28.0039 49.1048 28.2658C49.517 28.9064 49.4853 30.1513 49.6444 30.9043C49.8641 31.9544 49.4993 33.1122 49.4412 34.1961C49.3241 36.3227 49.1741 39.0036 48.3171 40.9743C47.9445 41.8324 46.9357 44.8196 48.9573 44.405C51.0296 43.9761 52.2297 41.0755 52.675 39.0426C52.6466 40.523 52.6441 41.9814 52.5467 43.4732C52.4663 44.6729 53.0374 45.742 52.889 46.9233C52.8099 47.5561 52.6176 47.8946 52.3088 48.0988C50.3361 47.3012 48.5027 46.3096 46.6719 45.046C44.9532 43.7108 43.2731 42.3221 41.6284 40.898C41.4908 40.779 41.3532 40.6599 41.2156 40.5408C41.0292 40.3766 40.8381 40.2191 40.6517 40.0549C40.0373 39.5124 39.4113 38.9718 38.8017 38.4226C36.5685 36.4341 34.2012 34.4203 32.211 32.1499C31.8987 31.7939 31.5912 31.4312 31.3 31.0599C28.4224 27.4122 25.5504 23.8699 22.9452 20.0122C21.5406 17.9289 20.1279 15.6167 18.4924 13.5301C17.3805 11.9713 16.1554 10.5138 14.8062 9.27141Z" fill="#468E02"/>
<path opacity="0.31" d="M49.4275 42.3798C48.6653 41.5487 49.7874 37.9939 49.9583 37.0213C50.6453 33.2251 50.5131 30.0474 47.7124 27.0836C46.8565 26.1853 46.1128 25.6109 45.5187 26.9894C44.7753 28.7171 45.1871 32.7343 45.3082 34.5856C45.3664 35.4792 45.9807 40.5139 43.8832 39.4239C42.7604 38.8409 42.9639 35.8029 42.8831 34.7714C42.703 32.3807 42.65 30.0814 43.0168 27.6777C43.2415 26.2064 44.1629 23.6939 43.6798 22.2621C43.0894 20.4996 39.0645 18.097 38.9898 21.3086C38.9307 23.6087 38.9828 25.8668 38.8117 28.1676C38.7571 28.9498 38.7064 33.7808 37.5279 32.8233C36.7117 32.1664 36.9494 29.2644 36.8483 28.2893C36.5985 25.798 36.3704 23.0788 36.5094 20.5826C36.5955 19.0219 36.9377 16.4688 35.0904 15.6801C33.6937 15.0831 33.387 16.4144 33.1681 17.4538C32.6227 20.0639 33.732 23.943 32.1771 26.2644C30.9239 28.123 30.7413 25.6088 30.5909 24.4057C30.3738 22.6882 30.42 20.9569 30.3954 19.2255C30.3643 17.8139 30.5 13.8957 28.2147 14.0703C27.9243 15.393 29.1633 19.4869 27.2859 20.0962C26.1761 20.4556 26.1364 17.8412 25.9272 17.2144C25.3074 15.3092 23.5548 11.3233 21.3466 10.9245C20.0958 12.9775 24.2235 15.2511 23.1641 17.3908C21.534 16.6668 20.5571 15.1035 19.5022 13.7479C18.537 12.5074 17.1696 11.2622 15.772 10.2285C15.452 9.89732 15.1339 9.57768 14.7995 9.26662C14.1239 8.63969 13.115 8.06751 12.2895 7.67772C12.1996 7.63345 12.0934 7.59777 11.9757 7.56397C11.7861 7.1642 12.0165 6.91385 13.2087 6.94829C14.7752 6.99798 15.9099 7.83284 17.2838 8.36279C18.6758 8.89566 20.1773 8.9088 21.6691 9.0062C23.0813 9.08712 24.4818 9.31165 25.8795 9.48352C34.9752 10.5576 41.9757 18.0675 46.9807 25.1083C49.4526 28.5864 51.8849 32.2187 52.531 36.404C52.4004 36.939 52.0288 37.372 51.1827 37.5758C51.6488 38.5087 50.6482 43.7023 49.4275 42.3798Z" fill="#A3CE24"/>
<path d="M18.3485 13.2644C18.2501 13.133 18.1518 13.0016 18.0487 12.8769C19.7186 14.1669 21.2439 16.6613 22.4409 18.271C23.4327 19.6016 24.2849 22.0589 25.6059 23.058C25.9186 21.6194 25.0356 19.2616 24.4403 17.9013C25.5994 19.352 26.0722 21.0806 26.4998 22.858C26.9086 24.5205 27.3562 26.3831 29.0627 27.1418C30.2195 25.9542 29.6055 23.6171 29.9949 22.1424C30.5746 24.4143 29.9855 27.6927 30.2381 28.5839C30.5942 29.8535 34.0481 32.7691 35.4022 33.1429C35.6301 32.3735 35.1939 31.3708 35.1585 30.5443C35.1193 29.6948 35.2727 28.8314 35.1645 27.9932C35.8669 29.8258 35.863 31.4557 36.2119 33.3287C36.5778 35.3051 38.1956 36.7808 39.6837 37.9708C41.564 35.7613 40.5086 32.1744 41.8511 29.7817C42.5373 31.1565 41.8128 33.3946 41.7117 34.8634C41.6093 36.4327 41.4984 37.9856 42.1431 39.5031C42.6421 40.6725 43.6689 42.1803 45.092 42.1473C46.5811 42.1212 47.9749 39.8971 48.4835 38.6802C48.3998 40.4353 46.2881 42.5294 47.1524 44.3059C47.8395 45.7219 49.2295 45.9187 50.5508 45.194C51.7417 44.538 52.1344 43.2989 52.6141 42.1221C52.5986 42.5674 52.5899 43.0174 52.5582 43.4713C52.4778 44.671 53.0488 45.7401 52.9005 46.9214C52.8214 47.5542 52.6291 47.8927 52.3202 48.0969C50.9924 47.5594 49.725 46.9234 48.4838 46.1946C45.375 43.5471 42.0368 41.1202 38.8627 38.507C36.1764 36.2033 33.473 33.7962 31.3163 31.0513C28.4387 27.4036 25.5666 23.8613 22.9615 20.0036C21.5655 17.9366 20.1296 15.6991 18.5631 13.6011C18.5127 13.4736 18.4296 13.3633 18.3485 13.2644Z" fill="#4A8209"/>
<path opacity="0.24" d="M22.8688 36.4762C23.7516 38.1139 24.8205 39.662 26.2373 41.0645C30.3214 45.122 39.3305 49.6222 44.9868 46.1078C44.2282 44.1841 39.2251 42.7626 37.4686 41.6638C32.9803 38.8474 29.3771 34.699 26.2174 30.4838C23.2238 26.4892 21.8186 19.4062 16.697 17.5142C14.8823 19.9432 17.2343 23.5178 18.2682 25.6797C19.9737 29.3074 21.0296 33.0771 22.8688 36.4762Z" fill="#CCEA86"/>
<path opacity="0.2" d="M36.1796 16.7054C36.0676 16.7061 35.9767 16.6915 35.8857 16.6769C35.8694 16.6855 35.8579 16.6874 35.8416 16.696C35.9641 16.7231 36.0714 16.7291 36.1796 16.7054Z" fill="#CCEA86"/>
<path opacity="0.2" d="M40.9319 19.691C40.1409 19.2956 39.2751 19.3433 38.7476 18.4677C38.4147 17.9144 38.5993 17.2053 38.0392 16.7424C37.4591 16.2651 36.4505 16.3421 35.8857 16.6769C35.1076 16.5037 35.1911 15.6104 34.6206 15.1197C34.1724 14.727 33.3709 14.6992 32.8757 14.3437C31.7898 13.554 31.6397 11.8137 30.5726 11.1389C29.4223 10.4246 28.1875 11.4243 27.122 11.2983C26.1704 11.183 25.7273 10.2464 24.8104 10.0546C23.6915 9.81921 23.0974 10.8022 22.166 10.6305C20.712 10.3675 19.5501 9.72605 18.0314 9.68031C17.1179 9.65324 16.3448 9.79791 15.5819 10.0412C15.3259 9.77634 15.0699 9.51143 14.7995 9.2666C14.124 8.63967 13.115 8.06749 12.2895 7.6777C12.1996 7.63344 12.0934 7.59775 11.9757 7.56396C11.7861 7.16418 12.0165 6.91383 13.2087 6.94827C14.7752 6.99796 15.9099 7.83282 17.2838 8.36277C18.6758 8.89564 20.1773 8.90878 21.6691 9.00618C23.0813 9.0871 24.4818 9.31163 25.8795 9.4835C34.9752 10.5575 41.9757 18.0675 46.9807 25.1082C47.1401 25.3241 47.288 25.5418 47.4426 25.7644C46.1718 24.1727 44.6467 22.7939 43.1273 21.4496C42.4336 20.8198 41.7544 20.099 40.9319 19.691Z" fill="#CCEA86"/>
<path opacity="0.25" d="M24.8639 37.4826C25.5132 38.2732 26.2665 38.8343 26.9542 39.5713C27.6706 40.3391 27.7971 41.5048 28.6441 42.1331C29.3352 42.6394 30.376 42.6869 31.1482 42.9674C32.236 43.3732 33.2247 44.0018 34.3259 44.4171C35.3774 44.817 36.4154 45.2073 37.4959 45.4962C38.1007 45.6566 39.233 46.2971 39.8354 46.2631C40.3325 46.2346 40.6103 46.2008 40.6952 45.5316C40.8794 44.1732 38.9546 43.3796 38.0361 43.0345C36.3139 42.3965 34.3653 42.3564 32.8731 41.2143C31.6793 40.3065 30.8722 38.9869 30.0852 37.7526C29.0051 36.0646 27.8737 34.2789 26.6863 32.6558C25.5733 31.1267 24.113 30.3217 23.2294 28.572C22.8339 27.781 22.3888 27.2992 21.9613 26.6375C21.4795 25.8961 18.4492 18.0116 17.3846 19.1132C16.5053 20.0131 18.9474 24.3521 19.3385 25.4036C20.2092 27.7221 21.5013 30.0186 22.0721 32.4159C22.5348 34.3706 23.6007 35.9369 24.8639 37.4826Z" fill="#CCEA86"/>
<g clip-path="url(#clip2_18402_3826)" filter="url(#filter0_f_18402_3826)">
<path d="M152.043 112.194C150.165 112.172 148.339 112.199 146.46 112.091C145.003 112.01 143.713 112.718 142.277 112.554C140.423 112.342 140.583 111.33 140.246 109.494C139.836 107.29 139.541 105.081 139.134 102.891C138.587 99.9426 138.709 96.7551 139.506 93.8579C141.073 88.1545 144.335 83.1869 148.556 79.0629C156.443 71.3651 168.325 66.7122 179.285 66.1631C181.718 66.0367 185.224 65.7217 187.254 64.2016C188.688 63.1309 190.279 60.5824 190.221 63.8019C190.182 65.7041 189.184 67.093 188.56 68.7679C187.932 70.465 187.937 72.2878 187.839 74.0999C187.76 75.8153 187.507 77.5184 187.317 79.2173C186.139 90.273 177.119 98.8738 168.641 105.046C163.665 108.678 158.414 112.251 152.043 112.194Z" fill="#78AF02"/>
<path opacity="0.42" d="M139.497 105.074C139.384 104.347 139.262 103.615 139.129 102.899C138.582 99.9508 138.703 96.7632 139.5 93.8661C141.067 88.1627 144.329 83.1951 148.551 79.0711C156.443 71.3651 168.325 66.7122 179.285 66.1631C181.718 66.0367 185.224 65.7217 187.254 64.2016C188.688 63.1309 190.279 60.5824 190.221 63.8019C190.195 65.2495 189.602 66.4092 189.053 67.6115C187.007 69.6944 184.292 70.7103 181.964 72.6202C181.011 73.4053 180.168 74.2429 179.136 74.9485C178.879 75.1228 175.773 76.5235 175.824 76.3638C176.524 74.3022 177.912 72.9308 179.51 71.5227C180.883 70.3118 183.561 68.6348 183.946 66.7434C180.058 64.9216 176.711 70.7944 174.429 72.7609C175.193 70.8173 177.086 69.5797 177.987 67.7197C176.859 68.3704 175.11 67.8164 173.798 68.3989C172.461 69.0003 171.685 70.0197 171.195 71.3982C170.407 73.5687 169.754 75.6148 169.438 77.7741C169.101 80.0661 169.873 82.5366 168.32 84.5256C166.683 83.0115 168.049 78.7793 168.485 77.0084C168.73 75.996 171.139 68.3425 171.481 68.4115C164.989 67.1338 162.332 76.5182 162.337 81.0404C162.344 82.5469 162.494 84.0569 162.551 85.5618C162.58 86.3393 162.097 88.9802 162.455 89.549C159.736 85.2743 160.56 79.2206 162.204 74.7314C162.581 73.6887 163.079 72.6461 163.123 71.5902C158.344 69.559 157.153 76.4668 156.9 79.4766C156.695 81.9464 155.985 84.4766 156.135 86.9631C156.24 88.7466 157.25 90.407 157.487 92.1602C155.874 90.1751 155.323 87.0412 155.206 84.5417C155.074 81.5424 156.578 78.4204 156.07 75.4512C153.995 74.7176 151.034 79.1872 150.322 80.6909C148.939 83.605 149.139 87.6406 149.126 90.7946C149.124 92.5757 149.935 94.2924 150.521 95.9484C150.867 96.9358 151.059 99.9032 151.628 100.571C150.332 99.0401 149.667 96.6443 149.226 94.7115C148.945 93.4759 148.682 92.2297 148.54 90.9696C148.422 89.8488 148.848 88.2303 148.566 87.2028C147.783 84.3826 145.759 86.1386 145.313 88.012C144.348 92.1592 144.345 96.0653 145.148 100.182C144.752 98.1332 143.823 96.4803 143.726 94.1782C143.638 91.8819 144.449 89.7146 143.971 87.3648C141.371 87.5206 140.706 96.3966 140.55 98.2045C140.374 100.303 140.695 102.336 141.346 104.318C141.693 105.355 142.88 107.164 143.179 108.497C143.259 108.871 143.274 109.199 143.176 109.46C143.078 109.721 140.154 106.279 139.926 105.839C139.787 105.583 139.641 105.321 139.497 105.074Z" fill="#A3CE24"/>
<path opacity="0.42" d="M139.5 93.8661C141.067 88.1627 144.329 83.1951 148.551 79.0711C156.443 71.3651 168.325 66.7122 179.285 66.1631C181.718 66.0368 185.224 65.7218 187.254 64.2016C188.688 63.1309 190.279 60.5824 190.221 63.8019C190.189 65.6239 189.27 66.9702 188.651 68.5509C187.606 69.9192 186.434 71.0516 184.722 71.647C184.594 71.6911 184.451 71.7377 184.314 71.7762C181.37 72.6314 182.06 70.428 181.333 68.6245C180.193 65.7737 177.493 69.0343 176.545 70.6657C175.764 72.0235 175.659 74.7343 174.223 75.5109C172.62 73.3734 174.569 70.5752 175.244 68.3744C170.848 67.6255 169.773 74.6997 169.948 77.8998C170.144 81.7495 168.016 79.0005 167.324 76.9397C166.875 75.6115 166.768 74.4743 166.845 73.0751C166.899 72.0749 167.302 70.6112 166.992 69.7467C165.047 71.9124 163.736 74.2178 162.968 77.1961C162.557 78.7401 162.094 80.8821 162.047 82.5345C162.01 83.9984 162.706 85.6709 161.935 86.9984C160.166 86.6992 159.647 82.1956 159.577 80.7791C159.402 77.371 160.045 74.8669 160.999 71.6766C159.656 71.7119 158.14 73.5436 157.43 74.609C156.409 76.1527 156.418 78.1254 156.144 79.9111C155.815 82.0008 155.469 84.2011 155.681 86.3033C155.812 87.5798 157.293 90.6077 156.695 91.6175C154.99 90.948 153.773 87.8236 153.156 86.2306C152.054 83.3946 152.226 79.9253 153.338 77.102C152.197 77.1448 150.697 79.8064 150.176 80.7597C147.509 85.6801 148.715 91.3122 150.413 96.4342C150.827 97.6895 151.786 99.1434 149.689 98.4425C148.544 98.0552 147.833 96.9955 147.365 95.886C145.917 92.5509 146.93 88.7543 146.58 85.2978C145.836 86.9866 144.936 89.0546 144.79 90.9183C143.682 94.0496 145.612 97.7954 144.571 100.778C143.055 98.9343 142.688 96.723 142.851 94.3825C142.953 92.8424 144.079 90.8351 143.684 89.3251C143.29 87.779 142.413 88.0553 141.612 89.3017C140.251 91.4006 140.914 94.5149 140.479 96.8601C140.285 97.9209 140.586 98.3635 139.255 97.9441C139.126 97.9022 138.992 97.8325 138.869 97.7464C138.947 96.4333 139.155 95.1259 139.5 93.8661Z" fill="#A3CE24"/>
<path opacity="0.42" d="M144.873 90.6955C144.843 90.7725 144.828 90.847 144.798 90.924C144.8 90.974 144.782 91.0346 144.783 91.0846C144.839 90.9527 144.867 90.8258 144.873 90.6955Z" fill="#A3CE24"/>
<path d="M139.129 102.899C138.582 99.9508 138.703 96.7632 139.5 93.8661C139.634 93.3615 139.812 92.8635 139.97 92.3762C139.84 92.9807 139.721 93.5688 139.661 94.089C139.34 96.7947 139.395 100.863 141.056 103.163C141.443 103.691 141.925 104.101 142.492 104.389C144.445 105.367 145.058 102.646 145.158 101.3C145.304 99.106 144.519 96.8461 144.211 94.6889C143.845 92.0753 144.292 87.6386 146.022 84.8215C144.438 89.2427 143.583 99.9758 149.128 101.298C149.391 101.36 149.714 101.281 149.807 100.992C150.614 98.1506 149.404 95.5562 149.054 92.71C148.712 89.9915 149.45 82.2658 150.002 81.0774C149.541 85.2724 150.02 90.4077 151.93 93.7979C153.084 95.8278 155.568 94.3571 156.168 92.6649C157.008 90.3347 155.742 87.7501 155.857 85.3031C155.977 82.5178 156.23 79.7883 156.784 77.063C156.923 76.3422 157.211 75.6526 157.466 74.94C157.944 73.6139 158.602 72.2921 159.937 71.6768C158.158 73.605 157.895 76.3149 157.674 78.7733C157.442 81.4561 157.202 84.1332 158.697 86.5484C159.21 87.3843 160.721 89.933 162.051 89.0457C163.214 88.2739 162.738 84.7894 162.652 83.6055C162.44 81.015 162.815 78.7378 163.232 76.209C163.604 73.9539 164.348 72.2651 165.968 70.58C164.332 73.5242 163.944 76.8665 164.238 80.1747C164.379 81.751 165.377 85.2587 167.711 83.7928C169.659 82.5815 169.031 79.296 169.016 77.4175C168.973 74.6034 170.573 71.5724 171.882 69.181C171.649 70.7513 170.91 72.2238 170.892 73.8353C170.889 74.6758 170.857 76.4117 171.299 77.0878C172.287 78.5868 172.783 76.8339 173.109 75.951C174.025 73.4422 175.249 71.5038 176.936 69.4624C178.309 67.7994 179.945 66.8943 181.977 66.2425C179.75 67.0506 178.731 68.8884 177.514 70.7465C176.622 72.1239 175.263 73.8706 176.249 75.5997C176.468 75.9849 176.899 76.0671 176.995 76.4522C177.173 77.1388 176.572 77.7184 176.216 78.2262C175.883 78.7011 175.749 79.2057 175.455 79.6954C174.702 80.9263 173.161 80.8599 172.017 81.499C170.777 82.2053 169.818 83.3648 168.807 84.3538C167.538 85.5893 166.253 86.8133 164.982 88.0348C162.482 90.4346 159.951 92.8253 157.454 95.2389C154.1 98.4565 150.697 101.604 147.173 104.629C144.684 106.768 143.3 108.289 142.391 111.364C142.304 111.645 142.197 112.059 142.05 112.53C140.481 112.26 140.585 111.258 140.264 109.52C139.831 107.298 139.535 105.089 139.129 102.899Z" fill="#6D9E02"/>
<path d="M145.103 104.045C146.551 102.031 148.269 100.207 149.867 98.3107C153.39 94.1372 156.97 89.5876 161.239 86.1444C165.627 82.6013 169.888 79.0663 174.534 75.8511C178.888 72.8454 183.891 69.6967 187.431 65.7787C188.183 64.9501 188.863 63.7176 189.325 62.7102C189.378 62.6004 189.42 62.471 189.459 62.3277C189.942 62.092 190.249 62.3683 190.223 63.8159C190.184 65.7181 189.187 67.1069 188.562 68.7819C187.935 70.479 187.939 72.3018 187.841 74.1138C187.763 75.8293 187.509 77.5323 187.32 79.2313C186.141 90.287 177.121 98.8877 168.644 105.06C163.66 108.686 158.408 112.259 152.043 112.194C150.165 112.172 148.339 112.199 146.46 112.092C145.003 112.01 143.713 112.718 142.277 112.554C141.508 112.467 141.094 112.238 140.842 111.866C141.905 109.131 143.262 106.602 145.103 104.045Z" fill="#61A304"/>
<path opacity="0.6" d="M187.429 65.7648C188.18 64.9362 188.861 63.7036 189.323 62.6962C189.375 62.5865 189.417 62.4571 189.456 62.3137C189.939 62.0781 190.246 62.3543 190.221 63.8019C190.223 63.9379 190.203 64.0706 190.189 64.1951C190.102 64.1459 190.003 64.1131 189.889 64.1188C189.319 64.1471 188.76 65.1716 188.467 65.5893C187.971 66.2796 187.37 66.7372 186.73 67.266C184.484 69.1473 182.06 70.7582 179.808 72.6476C178.631 73.63 174.056 75.9065 173.904 77.5342C173.776 79.0071 175.479 78.2839 176.597 77.9438C177.885 77.5521 178.584 76.8332 179.73 76.244C180.962 75.618 182.319 75.2502 183.464 74.4529C184.832 73.4944 185.844 72.4332 187.044 71.3321C186.338 73.2798 183.484 74.7724 181.8 75.8512C179.426 77.3744 177.027 78.5142 174.333 79.2393C172.142 79.8401 170.306 80.2634 168.613 81.8608C168.329 82.126 167.584 82.5442 167.832 82.9745C168.179 83.5596 169.486 83.1934 170.037 83.2617C171.151 83.4319 172.166 83.6914 173.327 83.724C175.362 83.7825 177.441 83.5175 179.473 83.44C181.234 83.3673 183.246 82.8483 184.782 81.9464C181.202 84.0407 177.7 85.116 173.504 84.8129C172.158 84.7121 170.754 84.8514 169.418 84.6843C168.052 84.5082 166.654 84.3591 165.366 84.9949C164.165 85.5939 163.096 86.7009 162.07 87.6063C160.652 88.8467 161.257 89.4295 162.873 89.8417C165.633 90.5552 168.446 90.2185 171.189 90.7124C173.695 91.162 176.556 90.2855 179.054 89.9969C181.09 89.7753 182.849 89.1643 184.461 88.328C184.429 88.3911 184.397 88.4541 184.365 88.5172C184.328 88.5884 184.29 88.6597 184.238 88.7334C181.056 91.4612 176.57 91.7118 172.442 92.2869C171.998 92.2932 171.546 92.2938 171.094 92.2943C168.357 92.2444 165.577 92.1518 162.834 92.3182C160.923 92.4318 158.909 92.2045 157.708 93.9881C157.265 94.6547 156.783 95.6727 157.389 96.3416C157.673 96.6506 158.287 96.8729 158.669 97.0067C162.249 98.2581 166.292 97.8918 170.017 98.048C172.353 98.1468 174.722 98.1466 177.074 97.9628C177.056 97.9874 177.031 98.0062 177.006 98.025C177 98.0332 176.994 98.0414 176.98 98.0438C174.646 99.5097 171.803 99.4712 169.14 99.595C167.765 99.6573 166.274 99.8334 164.895 99.7097C163.627 99.6024 162.369 99.5509 161.103 99.4576C159.234 99.3197 157.494 99.1016 155.623 99.1579C153.172 99.2228 149.251 99.9554 148.826 102.967C148.547 104.933 152.053 105.924 153.409 106.411C156.499 107.526 160.36 107.314 163.615 107.165C164.348 107.129 165.079 107.08 165.807 107.016C165.486 107.231 165.159 107.453 164.843 107.659C164.071 108.169 162.56 108.147 161.648 108.351C160.376 108.632 158.966 108.205 157.649 108.149C155.066 108.036 151.81 107.891 149.406 106.878C148.359 106.437 144.719 105.254 145.251 107.702C145.8 110.212 149.337 111.629 151.811 112.141C150.013 112.127 148.243 112.144 146.431 112.046C144.974 111.965 143.684 112.673 142.248 112.509C141.479 112.422 141.065 112.193 140.813 111.821C141.754 109.416 142.932 107.177 144.441 104.937C146.038 102.832 147.701 100.774 149.407 98.7577C149.549 98.5891 149.692 98.4204 149.835 98.2517C150.031 98.0233 150.22 97.7891 150.417 97.5606C151.067 96.8073 151.715 96.0401 152.373 95.2925C154.756 92.5544 157.168 89.6532 159.896 87.2061C160.324 86.8221 160.76 86.4439 161.207 86.0853C165.595 82.5423 169.856 79.0073 174.503 75.7921C177.012 74.0584 179.799 72.3118 182.31 70.2979C184.187 68.9268 185.939 67.4196 187.429 65.7648Z" fill="#468E02"/>
<path opacity="0.31" d="M147.715 108.245C148.714 107.308 153.044 108.622 154.227 108.816C158.845 109.598 162.7 109.393 166.259 105.953C167.338 104.902 168.025 103.991 166.343 103.289C164.236 102.41 159.365 102.965 157.12 103.138C156.036 103.221 149.933 104.036 151.227 101.475C151.919 100.104 155.61 100.309 156.861 100.197C159.76 99.9451 162.551 99.8492 165.474 100.261C167.263 100.514 170.325 101.598 172.056 100.992C174.188 100.251 177.049 95.3322 173.149 95.2857C170.357 95.2456 167.616 95.3399 164.821 95.1637C163.871 95.1083 158.006 95.1131 159.152 93.6694C159.938 92.6696 163.464 92.9183 164.646 92.7821C167.667 92.4447 170.965 92.1304 173.997 92.2649C175.892 92.3479 178.996 92.7282 179.928 90.475C180.634 88.7715 179.013 88.4174 177.749 88.166C174.573 87.5399 169.879 88.9397 167.04 87.0841C164.767 85.5885 167.816 85.3322 169.275 85.1332C171.356 84.846 173.459 84.8784 175.56 84.8247C177.273 84.7676 182.031 84.8785 181.788 82.1069C180.178 81.7725 175.226 83.3327 174.46 81.0622C174.009 79.72 177.182 79.6358 177.94 79.3733C180.244 78.5947 185.058 76.4126 185.512 73.7266C183.003 72.2366 180.299 77.2783 177.688 76.0217C178.544 74.0331 180.428 72.8258 182.059 71.5266C183.552 70.338 185.045 68.6611 186.28 66.9504C186.678 66.5574 187.061 66.1668 187.434 65.7566C188.186 64.928 188.867 63.6955 189.328 62.6881C189.381 62.5783 189.423 62.4489 189.462 62.3056C189.945 62.0699 190.252 62.3462 190.227 63.7937C190.188 65.696 189.19 67.0848 188.566 68.7598C187.938 70.4569 187.942 72.2796 187.845 74.0917C187.766 75.8072 187.513 77.5102 187.323 79.2092C186.144 90.2648 177.125 98.8656 168.647 105.038C164.459 108.086 160.083 111.088 155.012 111.93C154.361 111.779 153.83 111.334 153.571 110.31C152.445 110.888 146.127 109.745 147.715 108.245Z" fill="#A3CE24"/>
<path d="M182.63 70.1195C182.788 69.9983 182.947 69.8772 183.097 69.7503C181.554 71.795 178.547 73.6808 176.609 75.1559C175.008 76.3781 172.037 77.4463 170.842 79.0636C172.592 79.4234 175.442 78.3191 177.085 77.5778C175.34 79.0047 173.249 79.6024 171.097 80.1459C169.085 80.665 166.83 81.2338 165.932 83.3158C167.39 84.7036 170.218 83.9262 172.014 84.3786C169.264 85.1135 165.276 84.4435 164.198 84.7624C162.662 85.2121 159.17 89.4446 158.735 91.0935C159.672 91.3595 160.883 90.8162 161.886 90.7619C162.917 90.7027 163.967 90.877 164.983 90.7342C162.768 91.612 160.789 91.6297 158.521 92.0789C156.126 92.5502 154.357 94.5342 152.933 96.357C155.641 98.609 159.981 97.2786 162.904 98.8754C161.244 99.7272 158.517 98.8785 156.733 98.7759C154.827 98.6732 152.94 98.5599 151.107 99.3633C149.694 99.9851 147.878 101.252 147.938 102.979C147.99 104.786 150.709 106.448 152.193 107.048C150.061 106.971 147.491 104.436 145.346 105.51C143.637 106.363 143.417 108.053 144.315 109.647C145.127 111.084 146.637 111.544 148.072 112.11C147.531 112.097 146.985 112.093 146.433 112.06C144.976 111.979 143.686 112.687 142.25 112.523C141.481 112.436 141.067 112.207 140.815 111.835C141.449 110.216 142.204 108.669 143.072 107.152C146.243 103.342 149.143 99.2565 152.271 95.3678C155.031 92.0753 157.915 88.7607 161.218 86.105C165.606 82.5619 169.866 79.027 174.513 75.8117C177.003 74.0887 179.699 72.315 182.225 70.3847C182.379 70.3217 182.511 70.2194 182.63 70.1195Z" fill="#4A8209"/>
<path opacity="0.24" d="M154.517 75.9254C152.541 77.0196 150.676 78.3383 148.993 80.0774C144.124 85.0907 138.785 96.0883 143.129 102.906C145.454 101.959 147.111 95.8662 148.42 93.7189C151.777 88.232 156.763 83.8012 161.836 79.9079C166.644 76.2192 175.223 74.4162 177.449 68.1733C174.475 66.0039 170.169 68.908 167.559 70.1927C163.179 72.3128 158.617 73.6463 154.517 75.9254Z" fill="#CCEA86"/>
<path opacity="0.2" d="M178.698 91.8113C178.696 91.6753 178.712 91.5647 178.729 91.4541C178.718 91.4345 178.716 91.4205 178.705 91.4009C178.674 91.5499 178.668 91.6802 178.698 91.8113Z" fill="#CCEA86"/>
<path opacity="0.2" d="M175.14 97.6209C175.609 96.6553 175.539 95.605 176.594 94.9526C177.262 94.541 178.125 94.7553 178.679 94.0691C179.25 93.3583 179.143 92.1352 178.729 91.4541C178.929 90.5072 180.014 90.5963 180.602 89.897C181.072 89.3476 181.095 88.3744 181.52 87.7684C182.463 86.4393 184.574 86.2333 185.378 84.9287C186.229 83.5226 184.999 82.0374 185.137 80.7423C185.264 79.5856 186.395 79.0349 186.615 77.9193C186.886 76.5579 185.684 75.8502 185.88 74.7173C186.179 72.9487 186.942 71.5294 186.976 69.6854C186.997 68.5761 186.811 67.6397 186.505 66.717C186.823 66.4026 187.141 66.0882 187.434 65.7566C188.186 64.928 188.867 63.6954 189.328 62.688C189.381 62.5783 189.423 62.4489 189.462 62.3055C189.945 62.0699 190.252 62.3461 190.227 63.7937C190.188 65.6959 189.19 67.0848 188.566 68.7597C187.938 70.4568 187.942 72.2796 187.845 74.0917C187.766 75.8071 187.513 77.5102 187.323 79.2091C186.144 90.2648 177.125 98.8656 168.647 105.038C168.387 105.234 168.125 105.417 167.857 105.607C169.771 104.043 171.424 102.173 173.035 100.31C173.79 99.4593 174.656 98.625 175.14 97.6209Z" fill="#CCEA86"/>
<path opacity="0.25" d="M153.322 78.3611C152.372 79.1602 151.701 80.0822 150.816 80.9272C149.893 81.8073 148.48 81.9769 147.729 83.0136C147.124 83.8595 147.081 85.1235 146.751 86.0646C146.273 87.3907 145.524 88.5995 145.035 89.9419C144.564 91.2237 144.104 92.4892 143.768 93.8047C143.582 94.541 142.82 95.9243 142.87 96.6551C142.911 97.258 142.956 97.5948 143.769 97.6886C145.421 97.8936 146.358 95.5462 146.764 94.4266C147.515 92.3273 147.537 89.9614 148.903 88.1345C149.988 86.6728 151.579 85.675 153.066 84.7027C155.1 83.3685 157.252 81.9705 159.206 80.5068C161.047 79.1349 162.004 77.3512 164.116 76.2546C165.071 75.7636 165.649 75.2167 166.447 74.6888C167.34 74.0937 176.869 70.307 175.517 69.0299C174.413 67.9749 169.18 70.9989 167.909 71.4881C165.106 72.5768 162.336 74.1768 159.434 74.9026C157.068 75.4911 155.181 76.8065 153.322 78.3611Z" fill="#CCEA86"/>
</g>
<defs>
<filter id="filter0_f_18402_3826" x="126" y="44" width="76.7069" height="84.8445" filterUnits="userSpaceOnUse" color-interpolation-filters="sRGB">
<feFlood flood-opacity="0" result="BackgroundImageFix"/>
<feBlend mode="normal" in="SourceGraphic" in2="BackgroundImageFix" result="shape"/>
<feGaussianBlur stdDeviation="2" result="effect1_foregroundBlur_18402_3826"/>
</filter>
<clipPath id="clip0_18402_3826">
<rect width="53" height="44" fill="white" transform="translate(25 65)"/>
</clipPath>
<clipPath id="clip1_18402_3826">
<rect width="30.18" height="23.44" fill="white" transform="translate(91 42)"/>
</clipPath>
<clipPath id="clip2_18402_3826">
<rect width="68.86" height="35.64" fill="white" transform="translate(130 104.389) rotate(-54.9747)"/>
</clipPath>
</defs>
</svg>
