<svg width="187" height="104" viewBox="0 0 187 104" fill="none" xmlns="http://www.w3.org/2000/svg">
<g clip-path="url(#clip0_18401_3826)" filter="url(#filter0_f_18401_3826)">
<path d="M51.5057 84.0221C49.787 85.2256 47.8753 86.0336 46.0971 85.6977C44.3904 85.3879 42.8604 83.9634 41.6665 82.8375C39.2139 80.4673 37.8593 79.0796 36.183 76.2061C34.866 73.9378 33.3606 71.6686 32.6495 69.1059C32.0198 66.9117 32.3574 64.5412 31.2705 62.4922C29.9097 59.9369 29.9821 59.5161 32.7878 58.8439C41.6058 56.6889 47.0585 57.0756 55.0508 61.6664C58.7132 63.7861 61.1564 65.516 60.3283 69.8625C59.6712 73.2955 57.8415 77.2095 55.7209 79.9605C54.6852 81.2501 53.2038 82.8382 51.5057 84.0221Z" fill="#FFC40C"/>
<path d="M48.7356 76.7121C50.4094 75.2619 51.9053 73.4487 52.4238 72.025C53.5979 68.875 48.7889 66.2023 46.4216 65.4486C43.1725 64.4145 39.6676 63.4904 36.3378 62.7521C37.7765 62.3546 39.2656 62.1515 40.7739 62.1181C44.0276 62.0292 47.3164 62.2512 50.4396 62.9278C53.8258 63.6596 58.068 64.5946 58.3996 68.9027C58.6224 71.9922 57.3889 74.5649 56.179 77.2952C54.9702 79.9853 51.6698 82.0899 48.9201 82.9044C48.2365 83.1162 47.4797 83.0845 46.6745 82.9268C42.5383 82.071 40.9643 78.9908 39.3437 75.4465C38.8017 74.2328 38.4799 72.896 37.8035 71.7553C37.0819 70.5168 35.8207 68.9464 34.9439 67.3939C36.8217 68.7146 38.4112 71.1229 39.7617 72.9292C40.8769 74.4194 41.9941 75.978 43.4553 77.1471C45.4959 78.7981 46.808 78.3409 48.7356 76.7121Z" fill="#FFFA50"/>
<path d="M35.0713 67.5623C34.0129 66.3231 32.6889 64.2961 33.7568 63.1402C34.7498 62.079 37.5361 62.3483 38.7689 62.5534C40.6759 62.8684 42.5121 63.4151 44.3755 63.8498C45.8927 64.1991 47.2234 64.2093 48.5988 65.0219C51.1961 66.5505 53.3293 67.91 52.5828 71.1072C51.6428 75.169 45.6921 81.1462 41.426 77.316C39.9023 75.9481 39.8151 74.2631 39.01 72.5877C38.2319 70.9492 36.9855 69.5603 35.7193 68.2996C35.5487 68.102 35.3153 67.8544 35.0713 67.5623Z" fill="#FFE62E"/>
<path d="M46.0971 85.6977C44.3904 85.3879 42.8604 83.9634 41.6665 82.8375C39.2139 80.4673 37.8593 79.0796 36.183 76.2061C34.866 73.9378 33.3606 71.6686 32.6495 69.1059C32.3476 68.0474 32.2677 66.9342 32.1434 65.832C32.3143 66.4362 32.4895 67.0285 32.7546 67.5587C33.6793 69.5351 34.5928 71.6159 35.9132 73.357C35.9326 73.3776 35.9521 73.3983 35.9596 73.4146C37.921 77.0965 40.8278 80.6621 43.7885 81.415C48.7748 82.6753 54.1333 79.1385 56.1907 74.5621C59.1598 68.0005 54.893 63.5061 48.6562 61.6821C43.2505 60.0929 36.0997 58.4103 30.581 60.4253C30.5128 60.4275 30.4728 60.4265 30.4165 60.4331C30.3284 59.6015 30.9993 59.2767 32.7878 58.8439C41.6058 56.6889 47.0585 57.0756 55.0508 61.6664C58.7132 63.7861 61.1564 65.516 60.3283 69.8625C59.6712 73.2955 57.8415 77.2095 55.7209 79.9605C54.709 81.2588 53.2157 82.8425 51.5295 84.0308C49.7751 85.2213 47.8753 86.0336 46.0971 85.6977Z" fill="#EF9818"/>
<path d="M52.5906 77.452C51.3653 78.7809 49.8138 79.7472 47.9977 80.4409C46.1728 81.1586 44.928 80.5427 46.9878 79.3279C50.329 77.333 52.0704 76.1784 53.3108 72.4022C53.6518 71.4288 53.7556 68.5531 54.5812 68.2846C56.2215 69.7763 55.275 72.8194 54.508 74.5185C54.002 75.6487 53.3644 76.6225 52.5906 77.452Z" fill="white"/>
<path d="M35.2339 65.0061C35.1792 65.2301 35.1484 65.4628 35.1632 65.6444C35.2225 66.2216 35.6532 66.8527 35.9845 67.3122C36.2889 67.7347 36.7472 68.1048 36.8077 68.6418C36.2121 68.723 35.3528 67.5293 35.0441 67.1187C34.6079 66.5398 34.1773 65.9087 33.9493 65.2023C33.7762 64.6785 33.7363 64.122 34.0351 63.6345C34.3208 63.183 34.7914 62.853 35.218 63.3471C35.5831 63.7511 35.3553 64.4135 35.2339 65.0061Z" fill="white"/>
</g>
<g clip-path="url(#clip1_18401_3826)" filter="url(#filter1_f_18401_3826)">
<path d="M192.162 134.234C190.719 138.025 189.412 141.749 187.794 145.478C186.543 148.373 187.018 151.517 185.615 154.307C183.803 157.908 181.87 156.831 177.895 156.146C173.12 155.334 168.419 154.286 163.674 153.478C157.288 152.391 150.914 149.769 145.633 145.993C135.234 138.564 127.591 128.247 122.373 116.613C112.639 94.8821 112.058 67.3167 119.113 44.6803C120.67 39.6515 122.644 32.3072 121.074 27.0571C119.971 23.3504 115.988 18.2249 122.474 20.7427C126.303 22.2391 128.376 25.2977 131.307 27.8123C134.281 30.3501 137.982 31.6991 141.584 33.2477C145.004 34.686 148.269 36.4689 151.573 38.1192C173.116 48.7491 183.837 73.4514 190.036 95.2443C193.693 108.042 197.025 121.355 192.162 134.234Z" fill="#78AF02"/>
<path opacity="0.42" d="M168.372 154.37C166.813 154.058 165.237 153.759 163.686 153.496C157.299 152.408 150.925 149.786 145.644 146.011C135.245 138.582 127.602 128.265 122.384 116.63C112.638 94.8816 112.057 67.3162 119.112 44.6798C120.669 39.6511 122.643 32.3067 121.073 27.0567C119.97 23.35 115.987 18.2245 122.473 20.7423C125.39 21.8726 127.3 23.9395 129.329 25.9501C132.028 31.6518 132.065 37.9144 134.204 44.0585C135.085 46.5768 136.156 48.9116 136.817 51.53C136.98 52.1801 137.505 59.5242 137.219 59.3019C133.56 56.3459 131.814 52.5077 130.149 48.2185C128.717 44.5302 127.311 37.8505 123.762 35.6595C117.17 42.1881 126.586 53.352 128.873 59.4453C125.501 56.4477 124.402 51.686 121.301 48.4734C121.78 51.2452 119.353 54.3788 119.557 57.4736C119.78 60.6339 121.269 62.9666 123.7 64.9874C127.514 68.2042 131.177 71.0523 135.32 73.3038C139.718 75.6941 145.303 75.9698 148.18 80.6012C143.889 82.7939 136.324 76.8685 133.057 74.6661C131.187 73.4136 117.461 62.8245 117.856 62.1815C110.426 74.3962 127.477 86.7792 136.653 90.1381C139.713 91.2477 142.887 92.0674 145.982 93.0744C147.58 93.595 152.576 96.5432 153.996 96.24C143.301 98.5685 131.637 92.3867 123.759 85.7062C121.925 84.1654 120.182 82.377 118.073 81.5007C110.392 89.6806 123.514 97.2427 129.429 99.9993C134.286 102.255 138.887 105.582 144.042 107.131C147.737 108.246 151.857 107.435 155.589 108.262C150.361 110.054 143.595 108.836 138.439 107.209C132.258 105.243 127.047 99.8655 120.647 98.6826C117.613 102.343 124.47 111.681 126.989 114.245C131.868 119.222 140.202 121.824 146.589 124.2C150.199 125.532 154.286 125.166 158.08 125.212C160.341 125.246 166.501 127.069 168.281 126.411C164.21 127.899 158.855 127.463 154.607 126.916C151.891 126.566 149.168 126.17 146.507 125.52C144.146 124.924 141.181 122.854 138.887 122.658C132.584 122.145 134.637 127.559 138.104 129.86C145.795 134.907 153.715 137.823 162.661 139.263C158.212 138.539 154.167 139.193 149.427 137.672C144.704 136.139 140.913 132.88 135.791 132.098C134.169 137.488 151.675 145.451 155.225 147.114C159.35 149.036 163.712 149.899 168.216 150.058C170.579 150.126 175.132 149.067 178.058 149.454C178.876 149.57 179.551 149.785 180.008 150.177C180.465 150.57 171.306 153.936 170.242 154.07C169.62 154.16 168.981 154.262 168.372 154.37Z" fill="#A3CE24"/>
<path opacity="0.42" d="M145.644 146.011C135.245 138.582 127.602 128.265 122.384 116.63C112.638 94.8817 112.057 67.3162 119.112 44.6798C120.669 39.6511 122.643 32.3067 121.073 27.0567C119.97 23.35 115.987 18.2245 122.473 20.7423C126.145 22.1638 128.19 25.0311 130.934 27.4654C132.931 30.6035 134.354 33.8245 134.285 37.7397C134.279 38.0335 134.267 38.3574 134.243 38.6635C133.784 45.2714 129.829 42.2311 125.63 42.3602C118.999 42.5483 123.599 50.4549 126.201 53.5932C128.373 56.1884 133.792 58.4212 134.297 61.9117C128.767 63.5709 124.545 57.5331 120.585 54.5229C115.789 62.8808 129.335 70.3327 135.955 72.3625C143.909 74.834 136.748 77.1001 132.053 76.9691C129.024 76.8898 126.639 76.2586 123.859 75.0597C121.87 74.205 119.202 72.2967 117.218 72.2811C120.16 77.8403 123.859 82.216 129.326 85.9942C132.152 87.9775 136.15 90.5134 139.467 91.8398C142.408 93.0057 146.319 92.8402 148.436 95.3945C146.511 98.7582 136.99 96.4548 134.066 95.5404C127.023 93.3569 122.425 90.1853 116.665 85.8733C115.736 88.6244 118.321 93.0636 119.952 95.2977C122.322 98.5184 126.33 99.9693 129.747 101.857C133.74 104.082 137.944 106.422 142.366 107.559C145.052 108.244 152.296 107.499 153.898 109.464C151.27 112.422 144.027 112.562 140.336 112.627C133.763 112.748 126.856 109.813 121.959 105.454C121.195 107.8 125.475 112.824 127.02 114.592C135.011 123.668 147.332 125.42 158.985 125.794C161.84 125.889 165.503 125.027 162.518 128.758C160.879 130.792 158.201 131.443 155.602 131.565C147.759 132.017 140.814 127.134 133.544 125.267C136.414 128.034 139.937 131.401 143.608 133.086C149.133 137.666 158.168 136.544 163.442 140.878C158.572 142.578 153.813 141.675 149.188 139.601C146.141 138.245 142.91 134.466 139.553 134.141C136.124 133.788 136.03 135.774 137.962 138.325C141.204 142.65 148.013 143.627 152.446 146.257C154.452 147.441 155.574 147.161 153.732 149.546C153.551 149.778 153.309 149.998 153.043 150.183C150.438 149.047 147.941 147.65 145.644 146.011Z" fill="#A3CE24"/>
<path d="M163.686 153.496C157.299 152.408 150.926 149.786 145.644 146.011C144.721 145.363 143.843 144.631 142.973 143.946C144.102 144.662 145.206 145.342 146.216 145.85C151.464 148.517 159.756 151.438 165.658 149.783C167.017 149.391 168.209 148.721 169.215 147.785C172.653 144.554 167.591 141.283 164.937 140.076C160.596 138.146 155.428 138.054 150.824 137.07C145.25 135.865 136.586 131.651 132.162 126.043C139.948 132.551 161.078 142.284 167.892 132.023C168.212 131.537 168.294 130.823 167.777 130.419C162.616 126.665 156.452 127.186 150.419 125.774C144.652 124.441 129.534 117.187 127.535 115.182C135.699 119.244 146.471 122.098 154.77 120.751C159.746 119.924 158.615 113.79 155.63 111.312C151.53 107.873 145.345 108.514 140.468 106.457C134.909 104.137 129.562 101.591 124.448 98.4354C123.09 97.6165 121.906 96.5186 120.651 95.47C118.317 93.5132 116.127 91.1941 115.874 88.0283C118.459 93.073 123.759 95.6257 128.58 97.906C133.848 100.375 139.098 102.857 145.11 101.626C147.188 101.208 153.482 100.044 152.674 96.6851C151.976 93.7498 144.555 92.1191 142.09 91.4115C136.678 89.9098 132.339 87.4524 127.522 84.7225C123.225 82.2882 120.355 79.5207 118.145 74.9783C122.897 80.4905 129.385 83.7695 136.314 85.6374C139.616 86.5266 147.473 87.118 146.239 81.292C145.234 76.4386 138.103 75.2638 134.283 73.8932C128.544 71.8824 123.589 66.3801 119.715 61.9418C122.726 63.5858 125.161 66.1819 128.416 67.4196C130.118 68.052 133.615 69.4109 135.315 69.0184C139.092 68.1303 135.907 65.8184 134.359 64.4998C129.954 60.773 126.935 56.8455 124.052 51.9026C121.703 47.8783 121.086 43.8865 121.279 39.2797C121.258 44.3986 124.225 47.8356 127.087 51.6881C129.216 54.5239 131.745 58.5806 135.987 57.8693C136.931 57.7132 137.419 56.9006 138.272 56.9921C139.797 57.1424 140.524 58.7945 141.289 59.8946C142.004 60.9237 142.927 61.5711 143.701 62.5331C145.636 64.9771 144.353 68.0526 144.797 70.849C145.305 73.89 146.942 76.6993 148.194 79.4861C149.754 82.9802 151.279 86.499 152.809 89.9877C155.812 96.8462 158.775 103.76 161.808 110.624C165.834 119.824 169.681 129.07 173.189 138.472C175.673 145.113 177.727 149.053 183.285 153.189C183.79 153.575 184.549 154.099 185.395 154.748C183.678 157.73 181.724 156.773 177.959 156.127C173.132 155.351 168.43 154.303 163.686 153.496Z" fill="#6D9E02"/>
<path d="M170.463 142.234C167.458 137.797 165.039 132.953 162.384 128.3C156.545 118.043 149.986 107.394 146.185 96.1692C142.27 84.6292 138.276 73.3545 135.219 61.5343C132.368 50.4652 129.711 37.9719 124.403 27.8734C123.283 25.7313 121.29 23.4323 119.592 21.745C119.408 21.5567 119.177 21.3754 118.916 21.1887C118.797 20.0342 119.586 19.6173 122.503 20.7477C126.332 22.244 128.405 25.3027 131.337 27.8173C134.31 30.355 138.011 31.704 141.613 33.2527C145.033 34.691 148.298 36.4739 151.602 38.1242C173.145 48.7541 183.866 73.4564 190.065 95.2492C193.705 108.059 197.037 121.372 192.161 134.233C190.718 138.025 189.411 141.748 187.793 145.478C186.542 148.373 187.017 151.516 185.614 154.306C184.864 155.801 184.091 156.47 183.149 156.704C178.393 152.51 174.276 147.873 170.463 142.234Z" fill="#61A304"/>
<path opacity="0.6" d="M124.373 27.868C123.253 25.7259 121.26 23.4269 119.562 21.7396C119.378 21.5513 119.147 21.37 118.885 21.1832C118.767 20.0288 119.556 19.6119 122.473 20.7423C122.751 20.8388 123.005 20.9778 123.247 21.099C123.082 21.24 122.942 21.4165 122.868 21.6517C122.501 22.8275 124.162 24.7254 124.791 25.6302C125.822 27.1507 126.301 28.7118 126.897 30.4024C129.038 36.3607 130.499 42.4759 132.652 48.4519C133.768 51.571 134.975 62.5459 138.163 64.0666C141.054 65.4252 140.857 61.4313 141 58.9112C141.166 56.0071 140.229 54.0533 139.888 51.2908C139.537 48.3248 139.802 45.2989 139.038 42.3828C138.114 38.8944 136.716 36.0504 135.377 32.7978C138.801 35.6805 139.701 42.5797 140.634 46.7992C141.954 52.7493 142.478 58.4631 141.94 64.4671C141.525 69.3599 141.016 73.3975 142.994 78.0223C143.32 78.7951 143.613 80.6175 144.67 80.4353C146.116 80.1676 146.347 77.2442 146.896 76.1788C148.071 74.0463 149.354 72.1815 150.286 69.8499C151.921 65.7666 152.932 61.3537 154.29 57.1739C155.455 53.5493 155.902 49.0814 155.217 45.2946C156.796 54.1167 156.368 62.0186 152.626 70.3021C151.419 72.9567 150.654 75.9083 149.32 78.4934C147.944 81.1332 146.601 83.8563 146.93 86.9426C147.249 89.8254 148.698 92.8182 149.77 95.5725C151.228 99.3742 152.861 98.5815 154.901 95.6112C158.405 90.5448 159.819 84.5898 162.865 79.3944C165.644 74.6476 165.999 68.1917 167.275 62.9106C168.343 58.6165 168.415 54.5934 167.92 50.7011C168.024 50.813 168.128 50.9248 168.233 51.0367C168.349 51.1663 168.465 51.2959 168.576 51.4556C171.737 59.9414 168.902 69.2264 166.992 78.026C166.674 78.9312 166.338 79.8487 166.002 80.7662C163.861 86.2798 161.601 91.8495 159.895 97.5345C158.701 101.495 156.739 105.411 159.461 109.177C160.483 110.571 162.188 112.306 163.996 111.576C164.835 111.23 165.743 110.152 166.299 109.476C171.505 103.148 173.775 94.677 176.868 87.2391C178.809 82.5745 180.575 77.7694 181.954 72.864C181.991 72.9172 182.01 72.9828 182.03 73.0483C182.042 73.0661 182.054 73.0838 182.049 73.1139C183.282 78.9398 181.086 84.6762 179.352 90.1699C178.454 93.0043 177.699 96.1595 176.421 98.8633C175.259 101.355 174.216 103.869 173.084 106.366C171.411 110.054 169.672 113.42 168.392 117.257C166.696 122.277 165.26 130.773 171.05 133.88C174.83 135.911 179.453 129.54 181.451 127.152C186.015 121.717 188.462 113.729 190.586 107.017C191.06 105.503 191.504 103.984 191.918 102.46C192.114 103.271 192.322 104.1 192.505 104.894C192.962 106.839 191.792 109.888 191.525 111.889C191.147 114.678 189.231 117.22 188.137 119.848C185.983 125.003 183.261 131.498 179.415 135.618C177.742 137.413 172.629 143.913 177.99 144.66C183.488 145.417 188.998 139.299 191.881 134.664C190.513 138.299 189.228 141.902 187.68 145.504C186.429 148.399 186.903 151.542 185.501 154.333C184.75 155.828 183.978 156.496 183.036 156.73C178.859 153.029 175.196 148.97 171.778 144.241C168.7 139.434 165.765 134.528 162.947 129.565C162.712 129.15 162.476 128.735 162.24 128.32C161.923 127.751 161.589 127.194 161.272 126.625C160.229 124.745 159.156 122.86 158.13 120.968C154.353 114.094 150.267 107.041 147.338 99.6832C146.878 98.5293 146.436 97.3631 146.042 96.19C142.127 84.65 138.133 73.3753 135.075 61.555C133.43 55.1737 131.965 48.2194 129.751 41.6273C128.37 36.7991 126.619 32.122 124.373 27.868Z" fill="#468E02"/>
<path opacity="0.31" d="M180.927 140.066C179.772 137.344 185.663 129.54 186.938 127.286C191.965 118.504 194.424 110.533 190.099 100.751C188.771 97.7796 187.436 95.7076 184.759 98.5943C181.407 102.213 178.902 112.505 177.578 117.187C176.939 119.447 174.043 132.432 169.814 127.898C167.549 125.473 170.716 118.141 171.421 115.52C173.072 109.453 174.957 103.723 177.971 98.1022C179.816 94.6621 184.297 89.2592 184.358 85.2962C184.444 80.4218 176.601 70.9536 173.6 78.8273C171.438 84.4611 169.587 90.0889 167.146 95.6263C166.326 97.5121 161.965 109.41 159.891 106.01C158.449 103.67 161.581 96.7048 162.186 94.2057C163.753 87.8282 165.573 80.9064 168.106 74.8578C169.687 71.0752 172.771 65.064 168.896 61.4947C165.967 58.7943 164.042 61.8163 162.589 64.1939C158.953 70.1679 158.294 80.7294 152.414 85.1045C147.687 88.6002 149.44 82.2251 150.123 79.1192C151.092 74.6832 152.724 70.4441 154.182 66.1425C155.342 62.6258 159.113 53.059 153.311 51.4869C151.433 54.5021 150.907 65.7083 145.732 65.5686C142.673 65.4839 144.867 58.9863 144.9 57.2535C145.038 52.0005 144.2 40.6108 139.091 37.6887C134.199 41.6672 142.409 50.9065 137.915 55.2668C134.52 52.0479 133.476 47.3271 132.057 43.0511C130.758 39.1384 128.47 34.8613 125.921 31.0806C125.421 29.9815 124.915 28.9124 124.361 27.8502C123.24 25.7082 121.248 23.4092 119.549 21.7219C119.366 21.5336 119.134 21.3523 118.873 21.1655C118.755 20.011 119.544 19.5942 122.461 20.7246C126.29 22.2209 128.363 25.2795 131.294 27.7941C134.268 30.3319 137.968 31.6809 141.57 33.2295C144.991 34.6678 148.256 36.4508 151.56 38.1011C173.103 48.7309 183.823 73.4332 190.022 95.2261C193.083 105.991 195.911 117.103 193.839 128.015C193.047 129.223 191.749 129.968 189.478 129.73C189.813 132.445 182.785 144.406 180.927 140.066Z" fill="#A3CE24"/>
<path d="M129.628 40.8445C129.501 40.4334 129.373 40.0223 129.227 39.6235C132.224 44.2766 133.808 51.78 135.355 56.8087C136.64 60.9674 136.592 67.789 138.982 71.4169C141.016 68.1351 140.901 61.5323 140.622 57.6479C142.215 62.2501 141.868 66.9379 141.367 71.7065C140.92 76.1744 140.393 81.1712 143.947 84.5429C147.847 82.6215 148.379 76.3059 150.634 73.0018C150.075 79.1261 145.745 86.7138 145.588 89.1383C145.355 92.5891 151.336 102.824 154.356 104.936C155.594 103.234 155.395 100.373 156.032 98.2984C156.68 96.1642 157.816 94.1643 158.284 91.9976C158.413 97.1436 156.974 101.169 156.195 106.105C155.366 111.311 158.072 116.378 160.707 120.624C167.292 116.811 167.828 107.019 173.245 102.281C173.735 106.281 169.982 111.179 168.444 114.721C166.815 118.51 165.18 122.252 165.443 126.568C165.651 129.897 166.867 134.524 170.414 135.69C174.118 136.931 179.514 132.656 181.838 130.093C180.092 134.359 173.036 137.684 173.615 142.833C174.072 146.936 177.335 148.641 181.237 148.008C184.756 147.43 186.813 144.711 189.031 142.223C188.602 143.31 188.186 144.415 187.71 145.509C186.459 148.404 186.933 151.548 185.531 154.338C184.78 155.833 184.008 156.501 183.066 156.735C180.254 154.242 177.679 151.559 175.25 148.669C169.886 139.399 163.762 130.473 158.207 121.23C153.586 113.18 149.014 104.859 146.09 96.1831C142.174 84.6431 138.181 73.3684 135.123 61.5481C133.484 55.2146 131.897 48.4245 129.864 41.8648C129.851 41.5055 129.742 41.1599 129.628 40.8445Z" fill="#4A8209"/>
<path opacity="0.24" d="M120.451 102.187C121.198 107.009 122.482 111.773 124.755 116.482C131.293 130.093 149.618 149.116 166.682 145.388C166.493 139.968 155.372 132.067 151.993 127.811C143.368 116.914 138.098 103.5 133.983 90.3095C130.085 77.8103 132.822 59.0693 121.82 49.9019C115.204 54.3152 117.884 65.2137 118.545 71.4643C119.58 81.9271 118.885 92.1717 120.451 102.187Z" fill="#CCEA86"/>
<path opacity="0.2" d="M170.69 64.9843C170.412 64.8878 170.2 64.772 169.988 64.6562C169.94 64.6632 169.91 64.6578 169.862 64.6647C170.142 64.8391 170.401 64.9479 170.69 64.9843Z" fill="#CCEA86"/>
<path opacity="0.2" d="M179.819 76.5314C178.211 74.8603 176.029 74.2192 175.492 71.5924C175.155 69.9327 176.233 68.3415 175.254 66.7062C174.239 65.0176 171.678 64.3239 169.988 64.6562C168.217 63.5457 169.206 61.4108 168.226 59.6976C167.462 58.3338 165.506 57.5625 164.593 56.2496C162.601 53.3452 163.756 48.9116 161.71 46.3079C159.493 43.5338 155.564 44.9223 153.04 43.6765C150.789 42.5572 150.515 39.8534 148.416 38.5754C145.857 37.0126 143.526 38.9216 141.375 37.6806C138.011 35.7557 135.701 33.1512 131.987 31.7066C129.753 30.8387 127.715 30.5185 125.616 30.4512C125.215 29.5719 124.814 28.6926 124.361 27.8502C123.24 25.7082 121.248 23.4092 119.549 21.7219C119.366 21.5336 119.134 21.3523 118.873 21.1655C118.755 20.011 119.544 19.5942 122.461 20.7246C126.29 22.2209 128.363 25.2795 131.294 27.7941C134.268 30.3319 137.968 31.6809 141.57 33.2295C144.991 34.6678 148.256 36.4508 151.56 38.1011C173.103 48.7309 183.823 73.4332 190.022 95.2261C190.227 95.8994 190.402 96.5673 190.589 97.2529C188.843 92.2041 186.282 87.4587 183.705 82.8035C182.542 80.6383 181.495 78.2611 179.819 76.5314Z" fill="#CCEA86"/>
<path opacity="0.25" d="M124.501 106.424C125.413 108.948 126.783 110.995 127.837 113.42C128.934 115.946 128.225 118.938 129.768 121.234C131.032 123.092 133.563 124.122 135.226 125.492C137.56 127.449 139.452 129.87 141.81 131.862C144.059 133.772 146.283 135.647 148.701 137.309C150.055 138.236 152.292 140.812 153.811 141.256C155.065 141.621 155.781 141.781 156.578 140.201C158.224 137.005 154.162 133.355 152.194 131.697C148.496 128.61 143.715 126.802 141.027 122.671C138.872 119.38 138.034 115.41 137.171 111.669C135.981 106.55 134.75 101.143 133.237 96.0898C131.827 91.3342 128.923 88.0638 128.273 82.9639C127.989 80.6618 127.311 79.0806 126.834 77.07C126.293 74.8148 125.715 52.6676 122.118 54.4573C119.155 55.9111 121.388 68.7782 121.433 71.7202C121.552 78.2149 122.733 85.0248 122.042 91.4514C121.472 96.6888 122.733 101.495 124.501 106.424Z" fill="#CCEA86"/>
</g>
<g clip-path="url(#clip2_18401_3826)">
<path d="M98.4654 37.6068C97.3341 39.383 95.4527 40.0958 93.4246 40.464C91.0908 40.8847 89.6043 40.0444 88.4237 37.9494C86.7209 34.8763 86.043 30.7806 85.2956 27.3539C84.7306 24.7678 84.2987 21.7084 84.32 19.094C84.331 18.0977 83.9776 16.7245 84.4734 15.8024C86.0191 12.8947 94.3164 21.6973 95.4163 22.9003C99.1005 26.9409 101.725 32.4966 98.4654 37.6068Z" fill="#757575"/>
<path d="M98.4654 37.6068C99.7154 35.6398 100.092 33.6043 99.8791 31.6167C99.4991 33.407 98.7852 34.2458 97.4726 35.3855C95.2456 37.2942 92.2008 34.9372 90.986 32.6522C86.6156 24.4021 85.2367 17.1639 85.3199 15.2239C84.9455 15.2629 84.6561 15.4407 84.4636 15.8005C83.9776 16.7245 84.3212 18.0958 84.3102 19.0921C84.2889 21.7064 84.7189 24.7757 85.2858 27.352C86.043 30.7806 86.7111 34.8744 88.4139 37.9475C89.5945 40.0425 91.081 40.8828 93.4148 40.4621C95.4508 40.1056 97.3342 39.383 98.4654 37.6068Z" fill="#575959"/>
<path d="M99.3591 35.7945C96.0231 34.5116 94.1192 31.2158 92.6707 27.9885C92.3674 27.2976 92.0426 26.6127 91.7276 25.9297C91.9854 26.5404 92.2432 27.1511 92.5127 27.7539C93.7394 30.4998 95.3836 36.1698 98.8369 36.9559C99.045 36.5686 99.2119 36.1835 99.3591 35.7945Z" fill="#D1D1D1"/>
<path d="M90.4651 28.5871C89.6131 26.6887 87.1122 19.4047 86.6253 18.0361C86.532 17.7835 86.4564 17.5446 86.3827 17.2958C86.7481 19.5476 88.7384 26.2632 89.7953 28.7824C91.5936 32.9847 94.2237 36.84 96.8216 39.2422C97.2166 38.9933 97.5721 38.6857 97.898 38.3213C94.1957 36.3047 91.987 31.9611 90.4651 28.5871Z" fill="#D1D1D1"/>
<path d="M85.4278 23.7016C85.909 26.4038 86.3962 29.1276 87.3594 31.7099C88.6581 35.1831 90.5682 38.1336 93.1228 40.4968C93.2267 40.4865 93.3207 40.4743 93.4148 40.4621C94.3966 40.287 95.3544 40.0256 96.2016 39.6C95.5497 39.4422 94.9365 39.1391 94.4338 38.5825C92.3817 36.3072 90.8112 33.4433 89.5941 30.6484C88.1432 27.3289 86.7324 23.8034 85.8082 20.2913C85.351 18.5617 85.4316 16.8962 85.5356 15.215C85.312 15.2121 85.1219 15.2464 84.9419 15.3335C84.5135 18.1027 84.9523 20.9699 85.4278 23.7016Z" fill="#959C9C"/>
<path d="M85.3985 20.7717C85.7248 27.7128 89.1708 34.9571 93.7538 40.3958C94.1672 40.3135 94.5531 40.2156 94.9311 40.106C91.8583 37.2138 89.3691 33.7324 87.8093 29.7702C86.7119 26.9885 85.6945 23.6925 85.3696 20.4502C85.3619 20.4895 85.366 20.5208 85.3603 20.5503C85.3861 20.6266 85.4041 20.6913 85.3985 20.7717Z" fill="#D1D1D1"/>
<path opacity="0.41" d="M87.0326 17.4635C86.5636 16.995 85.931 15.9035 87.1212 16.2785C87.8892 16.5201 88.4984 17.2096 89.1203 17.6774C91.4662 19.4394 93.2901 21.5785 95.2085 23.7563C97.245 26.0591 100.074 29.6272 98.9986 32.8916C98.5788 34.1546 97.7797 34.3858 96.8493 33.3585C95.5818 31.97 94.7982 30.034 93.9042 28.4025C92.2842 25.4271 90.9048 22.3152 88.8487 19.5908C88.2823 18.8384 87.6789 18.1194 87.0326 17.4635Z" fill="#A5AAAA"/>
<path d="M91.2044 20.937C92.0879 21.9959 93.0811 23.015 93.7788 24.1905C94.5852 25.54 95.6166 26.7805 96.4896 28.1023C96.851 28.6517 97.1988 29.2188 97.5603 29.7682C97.7341 30.0263 98.1513 30.7598 98.3818 30.1527C98.5135 29.7913 97.9194 28.9723 97.771 28.6886C97.405 28.0058 97.0802 27.3209 96.6752 26.6815C95.9976 25.6119 95.1634 24.6136 94.3938 23.5973C93.3717 22.2567 92.3561 21.0396 91.1192 19.9117C90.7745 19.5897 89.9674 18.505 89.4893 18.6053C89.5886 19.2971 90.5416 20.1046 90.9677 20.6361C91.0407 20.7319 91.1235 20.8295 91.2044 20.937Z" fill="#A5AAAA"/>
</g>
<g clip-path="url(#clip3_18401_3826)">
<path d="M11.8025 33.2111C11.9656 32.8433 12.2006 32.4432 12.5077 32.0107C15.0432 28.3423 13.1099 25.7866 13.0254 21.5519C12.9396 14.7438 15.0037 9.30228 18.711 3.72136C23.9855 -4.20081 32.2221 -11.8923 41.9737 -13.4083C52.3193 -15.009 57.4881 -3.34939 56.6518 4.86913C55.7532 14.3116 50.6798 22.9668 43.2669 28.7807C39.5232 31.6913 35.269 33.9124 30.6913 35.1867C26.3484 36.4249 21.7059 35.1196 17.4898 36.3702C14.0042 37.3971 10.1568 36.7403 11.8025 33.2111Z" fill="#FCE1A7"/>
<path d="M26.6888 0.0981162C29.782 -2.91059 33.9587 -6.12821 38.0035 -7.70064C39.983 -8.47628 41.6198 -9.53146 43.7996 -9.82502C46.1286 -10.1335 49.1208 -9.85558 50.9594 -8.21937C53.4226 -6.00545 55.3868 -1.8083 54.4329 1.48838C54.1313 -3.8795 48.1411 -6.44333 43.3433 -5.59895C40.6791 -5.13137 38.1636 -3.95057 35.8752 -2.51631C32.6436 -0.485489 29.3792 2.20142 27.0146 5.21251C24.4827 8.42865 22.8014 12.9531 21.4238 16.7693C20.029 20.6624 19.403 24.7046 18.2782 28.6587C17.9374 29.8603 17.2854 30.9675 16.576 32.0052C15.8332 33.0838 14.579 35.2933 13.3531 35.7048C13.2383 35.5656 13.2752 35.4364 13.3344 35.2798C13.7455 34.272 14.6579 33.3772 15.2121 32.4179C16.7992 29.6604 16.8064 27.0485 16.9143 23.9495C16.9482 22.8163 16.9934 21.6694 17.1293 20.551C17.6078 16.6617 19.1113 12.971 20.5865 9.37108C21.921 6.11161 24.027 2.66192 26.6888 0.0981162Z" fill="#F2CF91"/>
<path d="M53.4528 -8.0296C52.4246 -8.86819 51.2173 -9.73907 49.1502 -10.4234C45.8773 -11.4767 44.2272 -11.1608 40.8033 -10.2657C33.1206 -8.2914 26.3662 -2.66904 22.0096 3.67989C19.4209 7.44153 17.9745 11.9299 16.9643 16.3872C15.3588 23.4775 16.7699 26.4496 15.2172 30.7603C14.6894 32.2191 11.9826 35.5658 13.6209 36.7199C11.8596 36.4443 10.8058 35.3572 11.814 33.1975C11.9771 32.8296 12.2121 32.4295 12.5192 31.997C15.0547 28.3286 13.1214 25.7729 13.0369 21.5382C12.9511 14.7301 15.0152 9.28861 18.7225 3.70769C23.9969 -4.21447 32.2336 -11.9059 41.9851 -13.422C47.1164 -14.1993 50.9629 -11.7222 53.4528 -8.0296Z" fill="#F2CF91"/>
<path opacity="0.34" d="M19.951 28.986C20.7857 27.4588 21.4311 25.7999 22.0586 23.967C24.7796 16.1247 28.4485 8.4637 34.13 2.4215C37.5149 -1.16878 49.5484 -8.44948 52.3106 -0.528449C53.7913 3.72965 52.2174 9.29785 50.5321 13.2955C47.7517 19.9511 42.1495 26.7637 35.6293 30.0276C33.7783 30.9536 31.7509 31.508 29.7346 32.0488C26.0201 33.0484 22.3325 31.7479 18.8386 33.7925C17.9264 34.3232 14.2161 35.4855 16.4208 33.4822C17.9609 32.0977 19.063 30.6065 19.951 28.986Z" fill="#FFF5CA"/>
<path opacity="0.72" d="M52.579 -9.1975C50.7832 -10.6622 48.9683 -11.8238 46.3568 -12.0645C39.6611 -12.6997 32.5962 -8.62807 27.7041 -4.30944C21.6612 1.02828 18.5556 6.59918 16.485 13.1963C15.3998 16.6819 15.1464 21.4149 15.4352 24.9512C15.822 29.6829 13.3812 30.8562 12.4627 35.229C12.382 35.6639 12.4366 36.0727 12.5993 36.433C11.505 35.9274 11.0358 34.9074 11.8166 33.2223C11.9796 32.8545 12.2147 32.4543 12.5218 32.0219C15.0573 28.3534 13.1239 25.7977 13.0395 21.563C12.9536 14.755 15.0177 9.31346 18.725 3.73253C23.9995 -4.18963 32.2361 -11.8811 41.9877 -13.3972C46.5472 -14.1172 50.0948 -12.2253 52.579 -9.1975Z" fill="#ECBB70"/>
<path d="M16.8058 21.3115C16.8894 20.5374 16.9977 19.7608 17.1447 18.9928C17.3286 18.0957 17.6033 17.2271 17.8917 16.3696C19.2042 12.4094 20.5831 7.752 23.0199 4.34451C25.6214 0.707128 28.791 -2.5352 32.4899 -5.02708C34.1104 -6.11829 40.2111 -10.4073 46.8452 -10.0044C48.6271 -9.89403 50.832 -8.84685 52.5162 -6.88133C54.2166 -4.87978 54.9438 -1.9648 55.0633 0.659498C55.4305 8.85796 52.9337 17.2929 47.3259 23.4407C44.0541 27.0322 39.8098 30.0809 35.3731 31.9938C31.8504 33.514 28.4702 34.4675 24.6596 34.0456C22.8811 33.847 21.1142 34.6139 19.4116 35.274C17.925 35.8371 16.3218 36.4872 14.7475 35.9543C16.8577 36.082 18.7886 34.8342 20.7793 34.0449C25.4585 32.1704 27.9875 34.7795 35.527 31.0494C40.2707 28.704 44.1674 24.9621 47.4001 20.7468C48.8839 18.8156 50.3351 16.8124 51.3382 14.603C53.4096 9.96414 53.9316 4.78998 53.2269 -0.223715C53.0492 -1.46129 52.7858 -2.67774 52.2095 -3.76243C51.2195 -5.57148 49.3499 -6.77776 47.3615 -7.30681C45.7478 -7.73527 43.9709 -7.79591 42.3131 -7.55462C27.9987 -5.59431 18.5919 9.63354 17.9141 23.1715C17.7929 25.5312 17.886 28.02 16.8641 30.1686C15.9434 32.081 14.2121 33.5599 13.4509 35.5569C13.8142 33.9638 14.8124 33.0479 15.4996 31.6735C15.9792 30.7217 16.1307 29.3883 16.2855 28.3309C16.6244 26.0122 16.5801 23.6314 16.8058 21.3115Z" fill="#ECBB70"/>
<path d="M53.9999 3.50265C54.1056 6.47985 53.539 10.0014 52.5202 12.7899C50.6603 17.8971 47.7267 22.3335 43.7315 25.9723C40.6427 28.7798 34.922 32.4909 30.0556 33.2794C27.3006 33.7184 24.9101 33.4304 22.1388 33.8334C21.4093 33.9441 20.2631 34.3978 19.5276 34.5719C19.9348 34.3805 20.3309 34.2027 20.7407 34.0362C25.4199 32.1617 27.9489 34.7708 35.4884 31.0407C40.2322 28.6953 44.1288 24.9534 47.3615 20.7381C48.8453 18.8069 50.2965 16.8037 51.2996 14.5943C53.4096 9.96413 53.9316 4.78997 53.2269 -0.223724C53.1381 -0.842514 53.0158 -1.42029 52.8549 -2.00677C52.9997 -1.8204 53.8906 0.977753 53.9999 3.50265Z" fill="#C59C5F"/>
<path d="M50.5379 -8.65421C47.5959 -9.66525 44.3508 -9.71698 41.0049 -8.91753C38.1623 -8.23123 30.5471 -4.01658 23.9519 3.76163C20.469 7.86386 17.6079 18.369 17.3635 20.264C16.753 22.3839 18.0485 28.7444 15.0593 32.8851C14.5627 33.55 14.091 34.2123 13.7263 34.9393C13.6706 35.0076 13.6148 35.076 13.5591 35.1443C13.9866 33.8085 14.8493 32.9187 15.4885 31.6872C15.9681 30.7353 16.1196 29.402 16.2744 28.3446C16.6244 26.0122 16.5801 23.6314 16.8059 21.3115C16.8894 20.5374 16.9978 19.7608 17.1447 18.9928C17.3286 18.0957 17.6033 17.2271 17.8917 16.3696C19.2042 12.4094 20.5831 7.75201 23.0199 4.34452C25.6214 0.707139 28.791 -2.53519 32.4899 -5.02707C34.1104 -6.11828 40.2111 -10.4073 46.8452 -10.0044C47.9954 -9.93122 49.3109 -9.47289 50.5379 -8.65421Z" fill="#C59C5F"/>
<path opacity="0.51" d="M45.6953 20.6539C42.5544 24.7846 38.5001 28.2159 34.122 29.7213C31.8639 30.4746 28.1681 31.8992 25.7838 31.1838C23.0971 30.3355 23.4698 27.2476 25.2543 25.6755C27.7085 23.5342 31.0914 22.2414 33.6578 20.2144C36.3459 18.1501 38.7771 15.7852 40.7996 13.1096C41.3768 12.3739 41.9266 11.6159 42.4215 10.8131C43.7459 8.79748 44.8912 6.74956 45.938 4.59851C46.6106 3.32602 47.4638 0.88051 49.173 0.772165C53.2591 0.576507 51.6421 6.70139 51.1069 9.06484C50.325 12.9343 48.3765 17.0587 45.6953 20.6539Z" fill="#FFF5CA"/>
<path opacity="0.66" d="M40.1957 19.1959C42.7815 16.1375 45.0108 12.7885 47.1082 9.37729C47.665 8.4428 48.894 5.25666 50.4511 5.86655C51.8514 6.41681 50.8935 9.18665 50.5681 10.1733C48.3576 16.9978 43.153 22.4274 37.6676 27.0816C36.7783 27.836 29.827 31.1807 30.7973 27.556C31.0987 26.4587 34.6927 24.6553 35.6154 23.8599C37.2747 22.4133 38.7832 20.8437 40.1957 19.1959Z" fill="#FFFAE6"/>
<path opacity="0.51" d="M26.1715 -0.779056C26.2633 -0.863564 26.3662 -0.961743 26.4879 -0.999037C26.6097 -1.03633 26.7776 -0.990379 26.8153 -0.868612C26.8529 -0.746844 26.7886 -0.639975 26.7243 -0.533104C25.8021 0.877349 24.6196 2.07536 23.6289 3.4299C22.429 5.06903 21.5503 6.90195 20.7214 8.7299C20.3027 9.66313 19.8951 10.5827 19.4627 11.5047C19.2773 11.8999 18.6155 13.8869 18.0251 13.5192C17.5692 13.2384 18.1355 12.1523 18.2488 11.7895C18.5458 10.8935 18.8814 10.0063 19.2555 9.12773C20.0287 7.36813 20.9587 5.66816 22.0257 4.08C23.2651 2.33649 24.6417 0.704794 26.1715 -0.779056Z" fill="#FFFAE6"/>
<path opacity="0.51" d="M34.0112 -6.4724C33.8449 -6.38042 33.6922 -6.27727 33.5259 -6.18529C32.4884 -5.52907 31.5246 -4.76723 30.5471 -4.01658C30.3722 -3.88609 29.0699 -3.24101 29.4269 -4.04252C29.4663 -4.1469 29.5606 -4.20656 29.6413 -4.27739C30.4661 -4.92489 31.2636 -5.59475 32.1185 -6.19503C33.2674 -6.98796 34.4763 -7.68646 35.7204 -8.28804C38.2084 -9.4912 40.8728 -10.3229 43.5953 -10.8339C43.9519 -10.9073 44.3608 -10.9608 44.6375 -10.7123C44.6194 -10.5222 44.4445 -10.3917 44.2782 -10.2997C43.588 -9.92935 42.7428 -9.84473 41.9962 -9.657C41.1278 -9.43197 40.2517 -9.2815 39.4021 -8.99558C38.4557 -8.67487 37.5169 -8.27959 36.6356 -7.81475C35.7516 -7.37475 34.8651 -6.95961 34.0112 -6.4724Z" fill="#FFFAE6"/>
<path opacity="0.51" d="M31.0299 33.9602C32.3792 33.6494 33.6344 33.0341 34.9083 32.4797C39.8131 30.3567 43.6818 27.6846 47.2281 23.5886C47.4648 23.3264 47.8086 23.1288 48.1002 22.9113C48.1808 22.8404 48.3111 22.7646 48.4045 22.818C48.539 22.905 48.4489 23.1274 48.3349 23.2393C46.346 25.5098 44.2896 27.6112 41.8219 29.3773C39.5068 31.0402 36.8522 32.6994 34.1621 33.6466C32.2982 34.4483 30.2023 34.9469 28.1853 35.2367C26.218 35.5215 24.0787 35.2336 22.0944 35.2314C21.893 35.2264 21.7053 35.2327 21.5211 35.1507C21.5306 34.9991 21.672 34.9096 21.8161 34.845C23.1681 34.1949 24.9912 34.3388 26.462 34.3547C27.974 34.4042 29.5452 34.2971 31.0299 33.9602Z" fill="#FFFAE6"/>
</g>
<defs>
<filter id="filter0_f_18401_3826" x="18" y="47" width="50.7762" height="47.5614" filterUnits="userSpaceOnUse" color-interpolation-filters="sRGB">
<feFlood flood-opacity="0" result="BackgroundImageFix"/>
<feBlend mode="normal" in="SourceGraphic" in2="BackgroundImageFix" result="shape"/>
<feGaussianBlur stdDeviation="3" result="effect1_foregroundBlur_18401_3826"/>
</filter>
<filter id="filter1_f_18401_3826" x="71" y="3" width="156.14" height="174.12" filterUnits="userSpaceOnUse" color-interpolation-filters="sRGB">
<feFlood flood-opacity="0" result="BackgroundImageFix"/>
<feBlend mode="normal" in="SourceGraphic" in2="BackgroundImageFix" result="shape"/>
<feGaussianBlur stdDeviation="2" result="effect1_foregroundBlur_18401_3826"/>
</filter>
<clipPath id="clip0_18401_3826">
<rect width="31.6874" height="26.3065" fill="white" transform="translate(53.7745 88.5614) rotate(-159.99)"/>
</clipPath>
<clipPath id="clip1_18401_3826">
<rect width="148.781" height="77.0047" fill="white" transform="translate(159.905 173.12) rotate(-124.797)"/>
</clipPath>
<clipPath id="clip2_18401_3826">
<rect width="23.69" height="18.67" fill="white" transform="translate(102.863 18.5767) rotate(101.045)"/>
</clipPath>
<clipPath id="clip3_18401_3826">
<rect width="61" height="36" fill="white" transform="translate(66.4525 1.75385) rotate(129.202)"/>
</clipPath>
</defs>
</svg>
