<svg width="239" height="25" viewBox="0 0 239 25" fill="none" xmlns="http://www.w3.org/2000/svg">
<path d="M26.6666 11.7334C26.7333 11.4 26.4666 11 26.1333 11L22.3333 10.4667L20.5999 7.00004C20.5333 6.86671 20.4666 6.80004 20.3333 6.73337C19.9999 6.53337 19.5999 6.66671 19.3999 7.00004L17.7333 10.4667L13.9333 11C13.7333 11 13.5999 11.0667 13.5333 11.2C13.2666 11.4667 13.2666 11.8667 13.5333 12.1334L16.2666 14.8L15.5999 18.6C15.5999 18.7334 15.5999 18.8667 15.6666 19C15.8666 19.3334 16.2666 19.4667 16.5999 19.2667L19.9999 17.4667L23.3999 19.2667C23.4666 19.3334 23.5999 19.3334 23.7333 19.3334C23.7999 19.3334 23.7999 19.3334 23.8666 19.3334C24.1999 19.2667 24.4666 18.9334 24.3999 18.5334L23.7333 14.7334L26.4666 12.0667C26.5999 12 26.6666 11.8667 26.6666 11.7334Z" fill="#FFCF55"/>
<path d="M228.038 17.314V9.362L228.556 9.754L226.624 10.776L226.218 9.46L228.836 8.06H229.564V17.314H228.038ZM226.484 18V16.544H231.16V18H226.484Z" fill="#70737C"/>
<path d="M1.302 18L0.84 16.852L3.836 13.478C3.99467 13.31 4.158 13.1187 4.326 12.904C4.50333 12.68 4.67133 12.4513 4.83 12.218C4.98867 11.9847 5.11467 11.756 5.208 11.532C5.31067 11.2987 5.362 11.0793 5.362 10.874C5.362 10.5753 5.30133 10.3233 5.18 10.118C5.068 9.90333 4.9 9.74 4.676 9.628C4.46133 9.516 4.2 9.46 3.892 9.46C3.62133 9.46 3.35533 9.53933 3.094 9.698C2.83267 9.85667 2.59467 10.0807 2.38 10.37C2.16533 10.6593 1.99733 10.9953 1.876 11.378L0.714 10.65C0.872667 10.1087 1.11067 9.64667 1.428 9.264C1.75467 8.872 2.142 8.57333 2.59 8.368C3.04733 8.16267 3.542 8.06 4.074 8.06C4.62467 8.06 5.11467 8.17667 5.544 8.41C5.97333 8.634 6.30933 8.95133 6.552 9.362C6.79467 9.76333 6.916 10.23 6.916 10.762C6.916 10.9767 6.89267 11.196 6.846 11.42C6.79933 11.644 6.72467 11.8773 6.622 12.12C6.51933 12.3533 6.38867 12.6007 6.23 12.862C6.07133 13.114 5.88 13.38 5.656 13.66C5.44133 13.94 5.194 14.234 4.914 14.542L2.688 16.964L2.408 16.544H7.224V18H1.302Z" fill="#70737C"/>
<g opacity="0.5">
<rect x="40" y="9" width="173" height="9" rx="4.5" fill="#EFEFEF"/>
</g>
<rect x="40" y="9" width="4" height="9" rx="2" fill="#FFCF55"/>
</svg>
