<svg width="239" height="25" viewBox="0 0 239 25" fill="none" xmlns="http://www.w3.org/2000/svg">
<path d="M26.6666 11.7334C26.7333 11.4 26.4666 11 26.1333 11L22.3333 10.4667L20.5999 7.00004C20.5333 6.86671 20.4666 6.80004 20.3333 6.73337C19.9999 6.53337 19.5999 6.66671 19.3999 7.00004L17.7333 10.4667L13.9333 11C13.7333 11 13.5999 11.0667 13.5333 11.2C13.2666 11.4667 13.2666 11.8667 13.5333 12.1334L16.2666 14.8L15.5999 18.6C15.5999 18.7334 15.5999 18.8667 15.6666 19C15.8666 19.3334 16.2666 19.4667 16.5999 19.2667L19.9999 17.4667L23.3999 19.2667C23.4666 19.3334 23.5999 19.3334 23.7333 19.3334C23.7999 19.3334 23.7999 19.3334 23.8666 19.3334C24.1999 19.2667 24.4666 18.9334 24.3999 18.5334L23.7333 14.7334L26.4666 12.0667C26.5999 12 26.6666 11.8667 26.6666 11.7334Z" fill="#FFCF55"/>
<path d="M225.514 18.14C224.823 18.14 224.221 17.9813 223.708 17.664C223.204 17.3467 222.728 16.8147 222.28 16.068L223.456 15.326C223.689 15.6713 223.918 15.956 224.142 16.18C224.375 16.3947 224.613 16.5533 224.856 16.656C225.099 16.7587 225.355 16.81 225.626 16.81C225.953 16.81 226.256 16.7307 226.536 16.572C226.816 16.404 227.04 16.1753 227.208 15.886C227.376 15.5967 227.46 15.27 227.46 14.906C227.46 14.542 227.395 14.234 227.264 13.982C227.133 13.7207 226.942 13.5247 226.69 13.394C226.438 13.254 226.139 13.184 225.794 13.184C225.635 13.184 225.467 13.2027 225.29 13.24C225.122 13.268 224.94 13.3147 224.744 13.38C224.548 13.436 224.333 13.5107 224.1 13.604L223.68 12.498L226.704 9.166L226.998 9.6H222.826V8.2H228.44L228.72 8.76L225.514 12.316L225.164 11.952C225.239 11.9147 225.36 11.882 225.528 11.854C225.705 11.8167 225.85 11.798 225.962 11.798C226.373 11.798 226.755 11.8773 227.11 12.036C227.474 12.1853 227.787 12.4 228.048 12.68C228.319 12.9507 228.529 13.2727 228.678 13.646C228.837 14.01 228.916 14.402 228.916 14.822C228.916 15.4567 228.762 16.026 228.454 16.53C228.155 17.0247 227.749 17.4167 227.236 17.706C226.723 17.9953 226.149 18.14 225.514 18.14ZM230.712 18L230.25 16.852L233.246 13.478C233.405 13.31 233.568 13.1187 233.736 12.904C233.913 12.68 234.081 12.4513 234.24 12.218C234.399 11.9847 234.525 11.756 234.618 11.532C234.721 11.2987 234.772 11.0793 234.772 10.874C234.772 10.5753 234.711 10.3233 234.59 10.118C234.478 9.90333 234.31 9.74 234.086 9.628C233.871 9.516 233.61 9.46 233.302 9.46C233.031 9.46 232.765 9.53933 232.504 9.698C232.243 9.85667 232.005 10.0807 231.79 10.37C231.575 10.6593 231.407 10.9953 231.286 11.378L230.124 10.65C230.283 10.1087 230.521 9.64667 230.838 9.264C231.165 8.872 231.552 8.57333 232 8.368C232.457 8.16267 232.952 8.06 233.484 8.06C234.035 8.06 234.525 8.17667 234.954 8.41C235.383 8.634 235.719 8.95133 235.962 9.362C236.205 9.76333 236.326 10.23 236.326 10.762C236.326 10.9767 236.303 11.196 236.256 11.42C236.209 11.644 236.135 11.8773 236.032 12.12C235.929 12.3533 235.799 12.6007 235.64 12.862C235.481 13.114 235.29 13.38 235.066 13.66C234.851 13.94 234.604 14.234 234.324 14.542L232.098 16.964L231.818 16.544H236.634V18H230.712Z" fill="#70737C"/>
<path d="M3.514 18.14C2.82333 18.14 2.22133 17.9813 1.708 17.664C1.204 17.3467 0.728 16.8147 0.28 16.068L1.456 15.326C1.68933 15.6713 1.918 15.956 2.142 16.18C2.37533 16.3947 2.61333 16.5533 2.856 16.656C3.09867 16.7587 3.35533 16.81 3.626 16.81C3.95267 16.81 4.256 16.7307 4.536 16.572C4.816 16.404 5.04 16.1753 5.208 15.886C5.376 15.5967 5.46 15.27 5.46 14.906C5.46 14.542 5.39467 14.234 5.264 13.982C5.13333 13.7207 4.942 13.5247 4.69 13.394C4.438 13.254 4.13933 13.184 3.794 13.184C3.63533 13.184 3.46733 13.2027 3.29 13.24C3.122 13.268 2.94 13.3147 2.744 13.38C2.548 13.436 2.33333 13.5107 2.1 13.604L1.68 12.498L4.704 9.166L4.998 9.6H0.826V8.2H6.44L6.72 8.76L3.514 12.316L3.164 11.952C3.23867 11.9147 3.36 11.882 3.528 11.854C3.70533 11.8167 3.85 11.798 3.962 11.798C4.37267 11.798 4.75533 11.8773 5.11 12.036C5.474 12.1853 5.78667 12.4 6.048 12.68C6.31867 12.9507 6.52867 13.2727 6.678 13.646C6.83667 14.01 6.916 14.402 6.916 14.822C6.916 15.4567 6.762 16.026 6.454 16.53C6.15533 17.0247 5.74933 17.4167 5.236 17.706C4.72267 17.9953 4.14867 18.14 3.514 18.14Z" fill="#70737C"/>
<g opacity="0.5">
<rect x="40" y="9" width="173" height="9" rx="4.5" fill="#EFEFEF"/>
</g>
<rect x="40" y="9" width="84" height="9" rx="4.5" fill="#FFCF55"/>
</svg>
