<svg width="239" height="25" viewBox="0 0 239 25" fill="none" xmlns="http://www.w3.org/2000/svg">
<path d="M26.6666 11.7334C26.7333 11.4 26.4666 11 26.1333 11L22.3333 10.4667L20.5999 7.00004C20.5333 6.86671 20.4666 6.80004 20.3333 6.73337C19.9999 6.53337 19.5999 6.66671 19.3999 7.00004L17.7333 10.4667L13.9333 11C13.7333 11 13.5999 11.0667 13.5333 11.2C13.2666 11.4667 13.2666 11.8667 13.5333 12.1334L16.2666 14.8L15.5999 18.6C15.5999 18.7334 15.5999 18.8667 15.6666 19C15.8666 19.3334 16.2666 19.4667 16.5999 19.2667L19.9999 17.4667L23.3999 19.2667C23.4666 19.3334 23.5999 19.3334 23.7333 19.3334C23.7999 19.3334 23.7999 19.3334 23.8666 19.3334C24.1999 19.2667 24.4666 18.9334 24.3999 18.5334L23.7333 14.7334L26.4666 12.0667C26.5999 12 26.6666 11.8667 26.6666 11.7334Z" fill="#FFCF55"/>
<path d="M226.928 18V10.104L227.278 10.188L224.058 14.122L224.002 13.954H230.092V15.34H223.064L222.42 14.08L227.222 8.2H228.384V18H226.928ZM234.28 18.098C233.636 18.098 233.052 17.9533 232.53 17.664C232.007 17.3653 231.573 16.9407 231.228 16.39L232.068 15.452C232.506 15.9373 232.889 16.2687 233.216 16.446C233.542 16.6233 233.897 16.712 234.28 16.712C234.662 16.712 235.008 16.628 235.316 16.46C235.624 16.292 235.866 16.0633 236.044 15.774C236.23 15.4847 236.324 15.1627 236.324 14.808C236.324 14.4347 236.235 14.1033 236.058 13.814C235.89 13.5153 235.661 13.282 235.372 13.114C235.082 12.9367 234.756 12.848 234.392 12.848C234.214 12.848 234.046 12.862 233.888 12.89C233.729 12.9087 233.538 12.96 233.314 13.044C233.09 13.128 232.796 13.2587 232.432 13.436L231.634 12.358L232.208 8.2H237.5V9.6H233.16L233.454 9.334L232.992 12.442L232.642 12.036C232.735 11.9427 232.894 11.854 233.118 11.77C233.342 11.6767 233.589 11.602 233.86 11.546C234.14 11.4807 234.406 11.448 234.658 11.448C235.255 11.448 235.787 11.588 236.254 11.868C236.73 12.1387 237.103 12.5167 237.374 13.002C237.654 13.4873 237.794 14.0427 237.794 14.668C237.794 15.312 237.64 15.8953 237.332 16.418C237.024 16.9313 236.604 17.342 236.072 17.65C235.54 17.9487 234.942 18.098 234.28 18.098Z" fill="#70737C"/>
<path d="M4.928 18V10.104L5.278 10.188L2.058 14.122L2.002 13.954H8.092V15.34H1.064L0.42 14.08L5.222 8.2H6.384V18H4.928Z" fill="#70737C"/>
<g opacity="0.5">
<rect x="40" y="9" width="173" height="9" rx="4.5" fill="#EFEFEF"/>
</g>
<rect x="40" y="9" width="118" height="9" rx="4.5" fill="#FFCF55"/>
</svg>
