<svg width="239" height="25" viewBox="0 0 239 25" fill="none" xmlns="http://www.w3.org/2000/svg">
<path d="M26.6666 11.7334C26.7333 11.4 26.4666 11 26.1333 11L22.3333 10.4667L20.5999 7.00004C20.5333 6.86671 20.4666 6.80004 20.3333 6.73337C19.9999 6.53337 19.5999 6.66671 19.3999 7.00004L17.7333 10.4667L13.9333 11C13.7333 11 13.5999 11.0667 13.5333 11.2C13.2666 11.4667 13.2666 11.8667 13.5333 12.1334L16.2666 14.8L15.5999 18.6C15.5999 18.7334 15.5999 18.8667 15.6666 19C15.8666 19.3334 16.2666 19.4667 16.5999 19.2667L19.9999 17.4667L23.3999 19.2667C23.4666 19.3334 23.5999 19.3334 23.7333 19.3334C23.7999 19.3334 23.7999 19.3334 23.8666 19.3334C24.1999 19.2667 24.4666 18.9334 24.3999 18.5334L23.7333 14.7334L26.4666 12.0667C26.5999 12 26.6666 11.8667 26.6666 11.7334Z" fill="#FFCF55"/>
<path d="M228.038 17.314V9.362L228.556 9.754L226.624 10.776L226.218 9.46L228.836 8.06H229.564V17.314H228.038ZM226.484 18V16.544H231.16V18H226.484Z" fill="#70737C"/>
<path d="M3.038 17.314V9.362L3.556 9.754L1.624 10.776L1.218 9.46L3.836 8.06H4.564V17.314H3.038ZM1.484 18V16.544H6.16V18H1.484Z" fill="#70737C"/>
<g opacity="0.5">
<rect x="40" y="9" width="173" height="9" rx="4.5" fill="#EFEFEF"/>
</g>
<rect x="40" y="9" width="4" height="9" rx="2" fill="#FFCF55"/>
</svg>
