<svg width="238" height="25" viewBox="0 0 238 25" fill="none" xmlns="http://www.w3.org/2000/svg">
<path d="M26.6666 11.7334C26.7333 11.4 26.4666 11 26.1333 11L22.3333 10.4667L20.5999 7.00004C20.5333 6.86671 20.4666 6.80004 20.3333 6.73337C19.9999 6.53337 19.5999 6.66671 19.3999 7.00004L17.7333 10.4667L13.9333 11C13.7333 11 13.5999 11.0667 13.5333 11.2C13.2666 11.4667 13.2666 11.8667 13.5333 12.1334L16.2666 14.8L15.5999 18.6C15.5999 18.7334 15.5999 18.8667 15.6666 19C15.8666 19.3334 16.2666 19.4667 16.5999 19.2667L19.9999 17.4667L23.3999 19.2667C23.4666 19.3334 23.5999 19.3334 23.7333 19.3334C23.7999 19.3334 23.7999 19.3334 23.8666 19.3334C24.1999 19.2667 24.4666 18.9334 24.3999 18.5334L23.7333 14.7334L26.4666 12.0667C26.5999 12 26.6666 11.8667 26.6666 11.7334Z" fill="#FFCF55"/>
<path d="M226.046 18.042C225.439 18.042 224.884 17.916 224.38 17.664C223.885 17.4027 223.489 17.0573 223.19 16.628C222.891 16.1987 222.742 15.7227 222.742 15.2C222.742 14.9107 222.779 14.64 222.854 14.388C222.938 14.1267 223.059 13.8887 223.218 13.674C223.386 13.4593 223.587 13.2633 223.82 13.086C224.053 12.9087 224.324 12.75 224.632 12.61L224.548 12.904C224.305 12.8107 224.086 12.6987 223.89 12.568C223.703 12.428 223.54 12.2693 223.4 12.092C223.26 11.9147 223.153 11.7233 223.078 11.518C223.013 11.3127 222.98 11.098 222.98 10.874C222.98 10.3793 223.115 9.93133 223.386 9.53C223.666 9.12867 224.035 8.80667 224.492 8.564C224.959 8.32133 225.477 8.2 226.046 8.2C226.615 8.2 227.129 8.32133 227.586 8.564C228.053 8.80667 228.421 9.12867 228.692 9.53C228.972 9.93133 229.112 10.3793 229.112 10.874C229.112 11.098 229.075 11.3127 229 11.518C228.935 11.7233 228.837 11.91 228.706 12.078C228.575 12.246 228.407 12.4 228.202 12.54C228.006 12.68 227.782 12.8013 227.53 12.904L227.488 12.666C227.768 12.778 228.02 12.9227 228.244 13.1C228.477 13.2773 228.678 13.478 228.846 13.702C229.014 13.926 229.14 14.164 229.224 14.416C229.317 14.668 229.364 14.9293 229.364 15.2C229.364 15.732 229.215 16.2127 228.916 16.642C228.617 17.0713 228.216 17.412 227.712 17.664C227.217 17.916 226.662 18.042 226.046 18.042ZM226.046 16.642C226.391 16.642 226.699 16.5767 226.97 16.446C227.25 16.3153 227.469 16.138 227.628 15.914C227.787 15.69 227.866 15.4333 227.866 15.144C227.866 14.836 227.787 14.5653 227.628 14.332C227.469 14.0893 227.25 13.898 226.97 13.758C226.699 13.618 226.391 13.548 226.046 13.548C225.701 13.548 225.393 13.618 225.122 13.758C224.851 13.898 224.637 14.0893 224.478 14.332C224.319 14.5653 224.24 14.836 224.24 15.144C224.24 15.424 224.319 15.676 224.478 15.9C224.637 16.124 224.851 16.306 225.122 16.446C225.393 16.5767 225.701 16.642 226.046 16.642ZM226.046 12.204C226.345 12.204 226.611 12.148 226.844 12.036C227.087 11.924 227.273 11.7747 227.404 11.588C227.544 11.392 227.614 11.168 227.614 10.916C227.614 10.664 227.544 10.44 227.404 10.244C227.273 10.048 227.087 9.894 226.844 9.782C226.611 9.66067 226.345 9.6 226.046 9.6C225.747 9.6 225.477 9.66067 225.234 9.782C225.001 9.894 224.814 10.048 224.674 10.244C224.543 10.44 224.478 10.664 224.478 10.916C224.478 11.168 224.543 11.392 224.674 11.588C224.814 11.7747 225.001 11.924 225.234 12.036C225.477 12.148 225.747 12.204 226.046 12.204ZM233.145 17.314V9.362L233.663 9.754L231.731 10.776L231.325 9.46L233.943 8.06H234.671V17.314H233.145ZM231.591 18V16.544H236.267V18H231.591Z" fill="#70737C"/>
<path d="M3.598 18.098C2.954 18.098 2.37067 17.9533 1.848 17.664C1.32533 17.3653 0.891333 16.9407 0.546 16.39L1.386 15.452C1.82467 15.9373 2.20733 16.2687 2.534 16.446C2.86067 16.6233 3.21533 16.712 3.598 16.712C3.98067 16.712 4.326 16.628 4.634 16.46C4.942 16.292 5.18467 16.0633 5.362 15.774C5.54867 15.4847 5.642 15.1627 5.642 14.808C5.642 14.4347 5.55333 14.1033 5.376 13.814C5.208 13.5153 4.97933 13.282 4.69 13.114C4.40067 12.9367 4.074 12.848 3.71 12.848C3.53267 12.848 3.36467 12.862 3.206 12.89C3.04733 12.9087 2.856 12.96 2.632 13.044C2.408 13.128 2.114 13.2587 1.75 13.436L0.952 12.358L1.526 8.2H6.818V9.6H2.478L2.772 9.334L2.31 12.442L1.96 12.036C2.05333 11.9427 2.212 11.854 2.436 11.77C2.66 11.6767 2.90733 11.602 3.178 11.546C3.458 11.4807 3.724 11.448 3.976 11.448C4.57333 11.448 5.10533 11.588 5.572 11.868C6.048 12.1387 6.42133 12.5167 6.692 13.002C6.972 13.4873 7.112 14.0427 7.112 14.668C7.112 15.312 6.958 15.8953 6.65 16.418C6.342 16.9313 5.922 17.342 5.39 17.65C4.858 17.9487 4.26067 18.098 3.598 18.098Z" fill="#70737C"/>
<g opacity="0.5">
<rect x="40" y="9" width="173" height="9" rx="4.5" fill="#EFEFEF"/>
</g>
<rect x="40" y="9" width="144" height="9" rx="4.5" fill="#FFCF55"/>
</svg>
